<svg preserveAspectRatio="none" width="100%" height="100%" overflow="visible" style="display: block;" viewBox="0 0 154 122" fill="none" xmlns="http://www.w3.org/2000/svg">
<g id="Frame">
<g id="Group 1272628938">
<path id="Vector" d="M106.973 7.89063L27.5537 8.07007L27.8014 117.691L107.22 117.511L106.973 7.89063Z" fill="var(--fill-0, #B7C2CC)"/>
<path id="Vector_2" d="M102.419 4L23 4.17944L23.2477 113.8L102.667 113.621L102.419 4Z" fill="var(--fill-0, #F8F8F8)"/>
<path id="Vector_3" d="M39.6124 30.6175L34.2441 30.6296L34.2718 42.8546L39.6401 42.8425L39.6124 30.6175Z" fill="var(--fill-0, #CBD3D6)"/>
<path id="Vector_4" d="M46.9923 26.5081L41.624 26.5203L41.6609 42.8379L47.0292 42.8257L46.9923 26.5081Z" fill="var(--fill-0, #FECB12)"/>
<path id="Vector_5" d="M54.3713 22.8763L49.0029 22.8884L49.048 42.8204L54.4163 42.8083L54.3713 22.8763Z" fill="var(--fill-0, #78CF7B)"/>
<path id="Vector_6" d="M61.7512 19.6702L56.3828 19.6824L56.4351 42.8035L61.8034 42.7913L61.7512 19.6702Z" fill="var(--fill-0, #73A6D9)"/>
<path id="Vector_7" fill-rule="evenodd" clip-rule="evenodd" d="M72.6948 23.2588C73.1791 23.2576 73.5727 23.6494 73.5738 24.1337C73.5749 24.618 73.183 25.0116 72.6988 25.0127C72.2145 25.0137 71.8209 24.6219 71.8199 24.1376C71.8187 23.6534 72.2105 23.2598 72.6948 23.2588Z" fill="var(--fill-0, #CBD3D6)"/>
<path id="Vector_8" fill-rule="evenodd" clip-rule="evenodd" d="M75.7534 23.7041L90.8479 23.6704C91.0818 23.6699 91.2735 23.8608 91.274 24.0947C91.2745 24.3285 91.0837 24.5203 90.8498 24.5208L75.7553 24.5545C75.5214 24.555 75.3297 24.3641 75.3291 24.1302C75.3287 23.8964 75.5196 23.7047 75.7534 23.7041Z" fill="var(--fill-0, #CBD3D6)"/>
<path id="Vector_9" fill-rule="evenodd" clip-rule="evenodd" d="M72.7056 28.042C73.1899 28.0408 73.5834 28.4326 73.5845 28.9169C73.5857 29.4013 73.1939 29.7948 72.7095 29.7959C72.2252 29.7969 71.8317 29.4052 71.8306 28.9208C71.8295 28.4365 72.2213 28.043 72.7056 28.042Z" fill="var(--fill-0, #FECB12)"/>
<path id="Vector_10" fill-rule="evenodd" clip-rule="evenodd" d="M72.7163 32.8262C73.2007 32.825 73.5942 33.2168 73.5953 33.7012C73.5963 34.1855 73.2046 34.579 72.7203 34.5801C72.2359 34.5811 71.8424 34.1894 71.8414 33.7051C71.8402 33.2207 72.232 32.8272 72.7163 32.8262Z" fill="var(--fill-0, #78CF7B)"/>
<path id="Vector_11" fill-rule="evenodd" clip-rule="evenodd" d="M72.728 37.6066C73.2123 37.6056 73.6059 37.9974 73.607 38.4817C73.6081 38.966 73.2163 39.3595 72.7319 39.3606C72.2477 39.3617 71.8541 38.9699 71.853 38.4856C71.852 38.0013 72.2437 37.6078 72.728 37.6066Z" fill="var(--fill-0, #73A6D9)"/>
<path id="Vector_12" fill-rule="evenodd" clip-rule="evenodd" d="M75.7622 28.4873L90.8566 28.4536C91.0906 28.4531 91.2822 28.644 91.2827 28.8778L91.2828 28.8779C91.2833 29.1118 91.0924 29.3035 90.8585 29.304L75.7641 29.3377C75.5302 29.3382 75.3385 29.1473 75.338 28.9135L75.338 28.9134C75.3375 28.6795 75.5283 28.4878 75.7622 28.4873Z" fill="var(--fill-0, #FECB12)"/>
<path id="Vector_13" fill-rule="evenodd" clip-rule="evenodd" d="M75.7738 33.2715L90.8683 33.2378C91.1023 33.2373 91.294 33.4281 91.2945 33.662C91.295 33.896 91.1041 34.0877 90.8702 34.0882L75.7758 34.1219C75.5419 34.1225 75.3502 33.9316 75.3497 33.6977C75.3491 33.4637 75.54 33.272 75.7738 33.2715Z" fill="var(--fill-0, #78CF7B)"/>
<path id="Vector_14" fill-rule="evenodd" clip-rule="evenodd" d="M75.7836 38.0547L90.8782 38.021C91.1121 38.0205 91.3038 38.2113 91.3043 38.4452C91.3048 38.6791 91.114 38.8709 90.8801 38.8715L75.7855 38.9051C75.5517 38.9057 75.3599 38.7148 75.3595 38.4809C75.3589 38.2469 75.5497 38.0552 75.7836 38.0547Z" fill="var(--fill-0, #73A6D9)"/>
<g id="Group">
<path id="Vector_15" fill-rule="evenodd" clip-rule="evenodd" d="M35.0414 56.6644L90.6013 56.5403C91.0105 56.5394 91.3461 56.8735 91.347 57.2827C91.3479 57.692 91.0139 58.0275 90.6046 58.0285L35.0447 58.1525C34.6354 58.1534 34.2999 57.8194 34.299 57.4101C34.2981 57.0009 34.6321 56.6653 35.0414 56.6644Z" fill="var(--fill-0, #CBD3D6)"/>
<path id="Vector_16" fill-rule="evenodd" clip-rule="evenodd" d="M35.0541 62.1927L90.614 62.0686C91.0233 62.0677 91.3588 62.4017 91.3597 62.811C91.3607 63.2203 91.0266 63.5559 90.6173 63.5568L35.0575 63.6809C34.6482 63.6818 34.3126 63.3477 34.3117 62.9384C34.3108 62.5291 34.6448 62.1937 35.0541 62.1927Z" fill="var(--fill-0, #CBD3D6)"/>
</g>
<path id="Vector_17" fill-rule="evenodd" clip-rule="evenodd" d="M34.3394 75.6398L42.3118 75.622C42.6053 75.6214 42.8439 75.8588 42.8445 76.1523L42.8623 84.1247C42.8629 84.4183 42.6255 84.6568 42.3319 84.6575L34.3595 84.6752C34.066 84.6759 33.8275 84.4384 33.8268 84.1449L33.809 76.1725C33.8084 75.8789 34.0458 75.6404 34.3394 75.6398ZM41.7827 76.6861L34.8733 76.7016L34.8887 83.611L41.798 83.5956L41.7827 76.6861Z" fill="var(--fill-0, #CBD3D6)"/>
<g id="Group_2">
<path id="Vector_18" fill-rule="evenodd" clip-rule="evenodd" d="M49.9855 76.3497L90.6449 76.2589C91.0541 76.258 91.3897 76.592 91.3906 77.0013C91.3915 77.4106 91.0575 77.7461 90.6482 77.7471L49.9888 77.8379C49.5795 77.8388 49.244 77.5047 49.2431 77.0955C49.2422 76.6862 49.5762 76.3507 49.9855 76.3497Z" fill="var(--fill-0, #CBD3D6)"/>
<path id="Vector_19" fill-rule="evenodd" clip-rule="evenodd" d="M49.999 81.8772L90.6585 81.7865C91.0678 81.7856 91.4033 82.1196 91.4042 82.5289C91.4051 82.9381 91.0711 83.2737 90.6618 83.2746L50.0024 83.3654C49.5931 83.3663 49.2576 83.0323 49.2567 82.623C49.2557 82.2137 49.5897 81.8781 49.999 81.8772Z" fill="var(--fill-0, #CBD3D6)"/>
</g>
<path id="Vector_20" fill-rule="evenodd" clip-rule="evenodd" d="M35.8611 80.6033C35.6532 80.3964 35.6524 80.0597 35.8594 79.8517C36.0664 79.6439 36.403 79.6431 36.6109 79.8501L37.5888 80.8236L40.0561 78.3453C40.263 78.1374 40.5997 78.1366 40.8076 78.3436C41.0155 78.5507 41.0163 78.8872 40.8093 79.0952L37.9671 81.9501C37.7601 82.158 37.4235 82.1588 37.2156 81.9518L35.8611 80.6033Z" fill="var(--fill-0, #78CF7B)"/>
<path id="Vector_21" fill-rule="evenodd" clip-rule="evenodd" d="M34.3725 89.6827L42.3449 89.6649C42.6385 89.6643 42.877 89.9017 42.8777 90.1953L42.8955 98.1677C42.8962 98.4613 42.6587 98.6998 42.3652 98.7004L34.3927 98.7182C34.0993 98.7188 33.8607 98.4814 33.8601 98.1879L33.8423 90.2154C33.8416 89.9219 34.079 89.6834 34.3725 89.6827ZM41.8158 90.7292L34.9065 90.7446L34.9219 97.6539L41.8312 97.6385L41.8158 90.7292Z" fill="var(--fill-0, #CBD3D6)"/>
<g id="Group_3">
<path id="Vector_22" fill-rule="evenodd" clip-rule="evenodd" d="M50.0166 90.391L90.6759 90.3002C91.0852 90.2993 91.4208 90.6334 91.4217 91.0426C91.4226 91.4519 91.0886 91.7874 90.6793 91.7884L50.0199 91.8792C49.6106 91.8801 49.2751 91.5461 49.2741 91.1368C49.2732 90.7275 49.6073 90.3919 50.0166 90.391Z" fill="var(--fill-0, #CBD3D6)"/>
<path id="Vector_23" fill-rule="evenodd" clip-rule="evenodd" d="M50.0293 95.9192L90.6888 95.8285C91.0981 95.8276 91.4335 96.1616 91.4345 96.5709C91.4354 96.9802 91.1014 97.3157 90.6921 97.3166L50.0327 97.4074C49.6234 97.4083 49.2879 97.0743 49.2869 96.665C49.286 96.2557 49.62 95.9202 50.0293 95.9192Z" fill="var(--fill-0, #CBD3D6)"/>
</g>
<path id="Vector_24" fill-rule="evenodd" clip-rule="evenodd" d="M35.8923 94.6443C35.6844 94.4373 35.6837 94.1007 35.8906 93.8928C36.0977 93.6848 36.4343 93.684 36.6422 93.8911L37.6201 94.8646L40.0873 92.3863C40.2943 92.1784 40.6309 92.1777 40.8389 92.3846C41.0468 92.5917 41.0476 92.9283 40.8405 93.1362L37.9983 95.9911C37.7914 96.199 37.4548 96.1998 37.2468 95.9928L35.8923 94.6443Z" fill="var(--fill-0, #78CF7B)"/>
<g id="Group_4">
<path id="Vector_25" fill-rule="evenodd" clip-rule="evenodd" d="M63.8905 56.5996L79.5596 56.5647C80.2601 56.9978 80.9293 57.4929 81.5589 58.0483L61.8946 58.0922C62.2562 57.7716 62.6364 57.4652 63.0357 57.1753C63.3159 56.972 63.6013 56.7808 63.8905 56.5996Z" fill="var(--fill-0, #CBD3D6)"/>
<path id="Vector_26" fill-rule="evenodd" clip-rule="evenodd" d="M58.6897 62.1387L84.7781 62.0805C85.0439 62.5666 85.2789 63.0632 85.4854 63.567L57.9927 63.6284C58.197 63.1211 58.4288 62.6233 58.6897 62.1387Z" fill="var(--fill-0, #CBD3D6)"/>
</g>
<g id="Group_5">
<path id="Vector_27" fill-rule="evenodd" clip-rule="evenodd" d="M58.7494 76.3299L84.7856 76.2718C84.5075 76.7837 84.1986 77.2816 83.8581 77.7619L59.6876 77.8159C59.3421 77.3333 59.0292 76.8373 58.7494 76.3299Z" fill="var(--fill-0, #CBD3D6)"/>
<path id="Vector_28" fill-rule="evenodd" clip-rule="evenodd" d="M64.0154 81.8459L79.5343 81.8113C78.4997 82.4506 77.412 82.9473 76.2962 83.3067L67.2743 83.3268C66.1399 82.969 65.0446 82.4738 64.0154 81.8459Z" fill="var(--fill-0, #CBD3D6)"/>
</g>
</g>
<circle id="Ellipse 20" cx="111" cy="88" r="18.3" fill="var(--fill-0, #2E9563)" stroke="var(--stroke-0, white)" stroke-width="1.4"/>
<path id="Vector 947" d="M103 88.7919L106.381 92.2888C107.131 93.064 108.36 93.1054 109.16 92.3824L120.294 82.3206" stroke="var(--stroke-0, white)" stroke-width="1.8" stroke-linecap="round"/>
</g>
</svg>
