<svg width="20" height="20" viewBox="0 0 20 20" fill="none" xmlns="http://www.w3.org/2000/svg">
<path d="M10 2.5C7.23858 2.5 5 4.73858 5 7.5V11.0858L3.29289 12.7929C3.10536 12.9804 3 13.2348 3 13.5V14.5C3 15.0523 3.44772 15.5 4 15.5H16C16.5523 15.5 17 15.0523 17 14.5V13.5C17 13.2348 16.8946 12.9804 16.7071 12.7929L15 11.0858V7.5C15 4.73858 12.7614 2.5 10 2.5Z" stroke="#94A3B8" stroke-width="1.5" stroke-linecap="round" stroke-linejoin="round"/>
<path d="M7.5 15.5V16.5C7.5 17.6046 8.39543 18.5 9.5 18.5H10.5C11.6046 18.5 12.5 17.6046 12.5 16.5V15.5" stroke="#94A3B8" stroke-width="1.5" stroke-linecap="round" stroke-linejoin="round"/>
</svg>
