<svg preserveAspectRatio="none" width="100%" height="100%" overflow="visible" style="display: block;" viewBox="0 0 10.7917 13.5979" fill="none" xmlns="http://www.w3.org/2000/svg">
<path id="book.closed" d="M2.03404 13.5979H10.2016C10.5343 13.5979 10.7917 13.3405 10.7917 13.0078C10.7917 12.7253 10.5971 12.5181 10.3585 12.4051C9.58636 12.0598 9.43569 10.9926 10.2204 10.2455C10.5406 9.96303 10.7854 9.64914 10.7854 9.01507V2.06543C10.7854 0.709403 10.0886 0 8.73884 0H2.0466C0.703125 0 0 0.703125 0 2.06543V11.5513C0 12.8948 0.703125 13.5979 2.03404 13.5979ZM8.62584 1.2493C9.23479 1.2493 9.53613 1.56948 9.53613 2.14704V8.82045C9.53613 9.12807 9.36035 9.29757 9.04646 9.29757H2.88156V1.2493H8.62584ZM1.2493 9.5173V2.14704C1.2493 1.62598 1.49414 1.31836 1.99009 1.26186V9.30385C1.70759 9.32896 1.46275 9.4043 1.2493 9.5173ZM2.20354 12.4177C1.53181 12.4177 1.18025 12.0347 1.18025 11.4446C1.18025 10.8733 1.58203 10.4778 2.24749 10.4778H8.51284C8.58189 10.4778 8.65095 10.4715 8.71373 10.459C8.39983 11.1244 8.4375 11.8464 8.77651 12.4177H2.20354Z" fill="var(--fill-0, #2E518A)"/>
</svg>
