<svg preserveAspectRatio="none" width="100%" height="100%" overflow="visible" style="display: block;" viewBox="0 0 20 20" fill="none" xmlns="http://www.w3.org/2000/svg">
<g id="Frame">
<path id="Vector" d="M13.75 0C14.0104 0 14.2643 0.0390625 14.5117 0.117188C14.7591 0.195312 14.987 0.3125 15.1953 0.46875C15.4036 0.625 15.5859 0.800781 15.7422 0.996094C15.8984 1.19141 16.0221 1.41927 16.1133 1.67969L19.6582 12.3047C19.8861 12.9753 20 13.6654 20 14.375C20 14.9805 19.8861 15.5469 19.6582 16.0742C19.4303 16.6016 19.1178 17.0638 18.7207 17.4609C18.3236 17.8581 17.8613 18.1706 17.334 18.3984C16.8066 18.6263 16.237 18.7435 15.625 18.75C15.0456 18.75 14.4889 18.6393 13.9551 18.418C13.4212 18.1966 12.946 17.8809 12.5293 17.4707C12.1191 17.0605 11.8034 16.5885 11.582 16.0547C11.3607 15.5208 11.25 14.9609 11.25 14.375V10H8.75V14.375C8.75 14.9544 8.63932 15.5111 8.41797 16.0449C8.19661 16.5788 7.88086 17.054 7.4707 17.4707C7.06055 17.8809 6.58854 18.1966 6.05469 18.418C5.52083 18.6393 4.96094 18.75 4.375 18.75C3.76953 18.75 3.20312 18.6361 2.67578 18.4082C2.14844 18.1803 1.6862 17.8678 1.28906 17.4707C0.891927 17.0736 0.579427 16.6113 0.351562 16.084C0.123698 15.5566 0.00651042 14.987 0 14.375C0 13.6654 0.113932 12.9753 0.341797 12.3047C0.374349 12.2135 0.449219 11.9922 0.566406 11.6406C0.683594 11.2891 0.826823 10.8529 0.996094 10.332C1.16536 9.8112 1.35742 9.23828 1.57227 8.61328C1.78711 7.98828 2.00195 7.35352 2.2168 6.70898C2.43164 6.06445 2.63997 5.43945 2.8418 4.83398C3.04362 4.22852 3.22266 3.68815 3.37891 3.21289C3.53516 2.73763 3.65885 2.36003 3.75 2.08008C3.84115 1.80013 3.88997 1.6569 3.89648 1.65039C3.99414 1.40951 4.12109 1.18815 4.27734 0.986328C4.43359 0.784505 4.61263 0.608724 4.81445 0.458984C5.01628 0.309245 5.24089 0.198568 5.48828 0.126953C5.73568 0.0553385 5.98958 0.0130208 6.25 0C6.73177 0 7.12565 0.078125 7.43164 0.234375C7.73763 0.390625 7.98503 0.598958 8.17383 0.859375C8.36263 1.11979 8.49935 1.42253 8.58398 1.76758C8.66862 2.11263 8.7207 2.4707 8.74023 2.8418C8.75977 3.21289 8.76953 3.58398 8.76953 3.95508C8.76953 4.32617 8.76302 4.67448 8.75 5H11.25C11.25 4.68099 11.2467 4.33594 11.2402 3.96484C11.2337 3.59375 11.237 3.2194 11.25 2.8418C11.263 2.46419 11.3184 2.10938 11.416 1.77734C11.5137 1.44531 11.6471 1.14258 11.8164 0.869141C11.9857 0.595703 12.2331 0.384115 12.5586 0.234375C12.8841 0.0846354 13.2812 0.00651042 13.75 0ZM4.375 17.5C4.80469 17.5 5.20833 17.4186 5.58594 17.2559C5.96354 17.0931 6.29232 16.8685 6.57227 16.582C6.85221 16.2956 7.07682 15.9635 7.24609 15.5859C7.41536 15.2083 7.5 14.8047 7.5 14.375C7.5 13.9453 7.41862 13.5417 7.25586 13.1641C7.0931 12.7865 6.86849 12.4577 6.58203 12.1777C6.29557 11.8978 5.96354 11.6732 5.58594 11.5039C5.20833 11.3346 4.80469 11.25 4.375 11.25C3.94531 11.25 3.54167 11.3314 3.16406 11.4941C2.78646 11.6569 2.45768 11.8815 2.17773 12.168C1.89779 12.4544 1.67318 12.7865 1.50391 13.1641C1.33464 13.5417 1.25 13.9453 1.25 14.375C1.25 14.8047 1.33138 15.2083 1.49414 15.5859C1.6569 15.9635 1.88151 16.2923 2.16797 16.5723C2.45443 16.8522 2.78646 17.0768 3.16406 17.2461C3.54167 17.4154 3.94531 17.5 4.375 17.5ZM7.5 2.5C7.5 2.32422 7.46745 2.16146 7.40234 2.01172C7.33724 1.86198 7.24935 1.73177 7.13867 1.62109C7.02799 1.51042 6.89453 1.41927 6.73828 1.34766C6.58203 1.27604 6.41927 1.24349 6.25 1.25C5.99609 1.25 5.75846 1.32812 5.53711 1.48438C5.31576 1.64062 5.15951 1.84245 5.06836 2.08984L2.24609 10.5469C2.57812 10.3711 2.92318 10.2376 3.28125 10.1465C3.63932 10.0553 4.00391 10.0065 4.375 10C4.58984 10 4.85026 10.0293 5.15625 10.0879C5.46224 10.1465 5.77148 10.2344 6.08398 10.3516C6.39648 10.4688 6.67969 10.6087 6.93359 10.7715C7.1875 10.9342 7.3763 11.1165 7.5 11.3184V2.5ZM11.25 8.75V6.25H8.75V8.75H11.25ZM12.5 11.3184C12.6172 11.1165 12.8027 10.9342 13.0566 10.7715C13.3105 10.6087 13.5938 10.472 13.9062 10.3613C14.2188 10.2507 14.528 10.1628 14.834 10.0977C15.14 10.0326 15.4036 10 15.625 10C15.9961 10 16.3607 10.0456 16.7188 10.1367C17.0768 10.2279 17.4219 10.3646 17.7539 10.5469L14.9316 2.08984C14.847 1.84245 14.694 1.64062 14.4727 1.48438C14.2513 1.32812 14.0104 1.25 13.75 1.25C13.5742 1.25 13.4115 1.28255 13.2617 1.34766C13.112 1.41276 12.9818 1.50065 12.8711 1.61133C12.7604 1.72201 12.6693 1.85547 12.5977 2.01172C12.526 2.16797 12.4935 2.33073 12.5 2.5V11.3184ZM15.625 17.5C16.0547 17.5 16.4583 17.4186 16.8359 17.2559C17.2135 17.0931 17.5423 16.8685 17.8223 16.582C18.1022 16.2956 18.3268 15.9635 18.4961 15.5859C18.6654 15.2083 18.75 14.8047 18.75 14.375C18.75 13.9453 18.6686 13.5417 18.5059 13.1641C18.3431 12.7865 18.1185 12.4577 17.832 12.1777C17.5456 11.8978 17.2135 11.6732 16.8359 11.5039C16.4583 11.3346 16.0547 11.25 15.625 11.25C15.1953 11.25 14.7917 11.3314 14.4141 11.4941C14.0365 11.6569 13.7077 11.8815 13.4277 12.168C13.1478 12.4544 12.9232 12.7865 12.7539 13.1641C12.5846 13.5417 12.5 13.9453 12.5 14.375C12.5 14.8047 12.5814 15.2083 12.7441 15.5859C12.9069 15.9635 13.1315 16.2923 13.418 16.5723C13.7044 16.8522 14.0365 17.0768 14.4141 17.2461C14.7917 17.4154 15.1953 17.5 15.625 17.5Z" fill="var(--fill-0, #F029F4)"/>
</g>
</svg>
