<svg preserveAspectRatio="none" width="100%" height="100%" overflow="visible" style="display: block;" viewBox="0 0 20 20" fill="none" xmlns="http://www.w3.org/2000/svg">
<g id="Frame">
<path id="Vector" d="M17.7917 9.44446H11.6806C11.066 9.44446 10.5694 8.94793 10.5694 8.33335V2.22224C10.5694 1.60765 11.0694 1.10418 11.6771 1.18404C15.3924 1.6771 18.3368 4.62154 18.8299 8.33682C18.9097 8.94446 18.4063 9.44446 17.7917 9.44446ZM7.72917 2.40279C8.35764 2.27085 8.90278 2.78474 8.90278 3.4271V10.2778C8.90278 10.4722 8.97222 10.6597 9.09375 10.809L13.6806 16.3438C14.0868 16.8333 14 17.5729 13.441 17.875C12.2569 18.5208 10.8993 18.8889 9.45833 18.8889C4.85764 18.8889 1.125 15.1563 1.125 10.5556C1.125 6.54515 3.95486 3.19793 7.72917 2.40279ZM16.5903 11.1111H18.8125C19.4549 11.1111 19.9687 11.6563 19.8368 12.2847C19.4826 13.9653 18.6215 15.4583 17.4201 16.5972C16.9931 17.0035 16.3229 16.9167 15.9479 16.4618L13.0174 12.9306C12.4167 12.2049 12.934 11.1111 13.8715 11.1111H16.5868H16.5903Z" fill="var(--fill-0, #1F82F2)"/>
</g>
</svg>
