<svg preserveAspectRatio="none" width="100%" height="100%" overflow="visible" style="display: block;" viewBox="0 0 16.2491 17.9145" fill="none" xmlns="http://www.w3.org/2000/svg">
<g id="Group">
<path id="Vector" d="M14.5793 9.78962C15.1645 8.94841 15.5178 7.96789 15.6036 6.94674C15.6894 5.9256 15.5047 4.89988 15.068 3.97281C14.6314 3.04575 13.9583 2.25006 13.1164 1.66585C12.2745 1.08164 11.2935 0.729509 10.2723 0.644914C9.25105 0.560318 8.22554 0.746238 7.29899 1.18396C6.37244 1.62168 5.57755 2.29576 4.99433 3.13834C4.4111 3.98093 4.06013 4.96228 3.97674 5.98362C3.89335 7.00496 4.08048 8.03025 4.51929 8.95628" stroke="var(--stroke-0, #F2B71A)" stroke-width="1.25" stroke-linecap="round" stroke-linejoin="round"/>
<path id="Vector_2" d="M9.79183 3.95628C8.871 3.95628 8.12516 4.51628 8.12516 5.20628C8.12516 5.89628 8.871 6.45628 9.79183 6.45628C10.7127 6.45628 11.4585 7.01628 11.4585 7.70628C11.4585 8.39628 10.7127 8.95628 9.79183 8.95628M9.79183 3.95628C10.5168 3.95628 11.1352 4.30378 11.3635 4.78962M9.79183 3.95628V3.12295M9.79183 8.95628C9.06683 8.95628 8.4485 8.60878 8.22016 8.12295M9.79183 8.95628V9.78962M0.625164 10.6229H2.621C2.866 10.6229 3.10766 10.6779 3.32683 10.7846L5.0285 11.6079C5.24766 11.7138 5.48933 11.7688 5.73516 11.7688H6.6035C7.4435 11.7688 8.12516 12.4279 8.12516 13.2413C8.12516 13.2746 8.10266 13.3029 8.07016 13.3121L5.95266 13.8979C5.57271 14.0029 5.16755 13.9662 4.81266 13.7946L2.9935 12.9146M8.12516 12.7063L11.9527 11.5304C12.2859 11.4282 12.6429 11.4338 12.9727 11.5465C13.3025 11.6592 13.5883 11.8732 13.7893 12.1579C14.0968 12.5829 13.9718 13.1929 13.5235 13.4513L7.261 17.0654C7.06518 17.1787 6.84834 17.251 6.62369 17.2778C6.39905 17.3046 6.1713 17.2854 5.95433 17.2213L0.625164 15.6396" stroke="var(--stroke-0, #F2B71A)" stroke-width="1.25" stroke-linecap="round" stroke-linejoin="round"/>
</g>
</svg>
