<svg preserveAspectRatio="none" width="100%" height="100%" overflow="visible" style="display: block;" viewBox="0 0 13.2007 13.2002" fill="none" xmlns="http://www.w3.org/2000/svg">
<g id="Group">
<path id="Vector" d="M4.80006 11.4001H3.00004C2.36351 11.4001 1.75305 11.1473 1.30296 10.6972C0.852867 10.2471 0.600007 9.63664 0.600007 9.00011V3.60004C0.600007 2.96352 0.852867 2.35306 1.30296 1.90297C1.75305 1.45287 2.36351 1.20001 3.00004 1.20001H9.60012C10.2366 1.20001 10.8471 1.45287 11.2972 1.90297C11.7473 2.35306 12.0001 2.96352 12.0001 3.60004V5.40007M4.20005 0.600007V1.80002M8.4001 0.600007V1.80002M0.600007 4.20005H12.0001M10.5001 8.78591L9.60012 9.68592" stroke="var(--stroke-0, #FF7553)" stroke-width="1.20001" stroke-linecap="round" stroke-linejoin="round"/>
<path id="Vector_2" d="M9.60064 12.6002C11.2575 12.6002 12.6007 11.257 12.6007 9.60013C12.6007 7.94325 11.2575 6.60009 9.60064 6.60009C7.94376 6.60009 6.6006 7.94325 6.6006 9.60013C6.6006 11.257 7.94376 12.6002 9.60064 12.6002Z" stroke="var(--stroke-0, #FF7553)" stroke-width="1.20001" stroke-linecap="round" stroke-linejoin="round"/>
</g>
</svg>
