<svg preserveAspectRatio="none" width="100%" height="100%" overflow="visible" style="display: block;" viewBox="0 0 20 20" fill="none" xmlns="http://www.w3.org/2000/svg">
<path d="M10 2.5C5.85786 2.5 2.5 5.85786 2.5 10C2.5 11.25 2.91667 12.4167 3.625 13.3333L2.5 17.5L6.66667 16.375C7.58333 17.0833 8.75 17.5 10 17.5C14.1421 17.5 17.5 14.1421 17.5 10C17.5 5.85786 14.1421 2.5 10 2.5ZM13.3333 13.3333C13.1667 13.5 12.5 13.75 12.25 13.75C12 13.75 11.5833 13.6667 10.8333 13.0833C9.83333 12.3333 9.25 11.5 9 11.25C8.75 11 8.66667 10.8333 8.5 10.5833C8.33333 10.3333 8.5 10.1667 8.66667 10C8.83333 9.83333 9 9.66667 9.16667 9.5C9.33333 9.33333 9.41667 9.25 9.58333 9.08333C9.75 8.91667 9.75 8.75 9.66667 8.58333C9.58333 8.41667 9.08333 7.5 8.83333 7.08333C8.58333 6.66667 8.33333 6.75 8.16667 6.75C8 6.75 7.83333 6.75 7.66667 6.75C7.5 6.75 7.25 6.83333 7.08333 7.08333C6.91667 7.33333 6.5 7.75 6.5 8.5C6.5 9.25 7 9.91667 7.16667 10.0833C7.33333 10.25 7.75 10.75 8.5 11.0833C9.25 11.4167 9.83333 11.4167 10.4167 11.3333C11 11.25 11.6667 10.9167 11.8333 10.75C12 10.5833 12.1667 10.5 12.25 10.3333C12.3333 10.1667 12.3333 10.0833 12.4167 10C12.5 9.91667 12.5 9.83333 12.4167 9.75C12.3333 9.66667 13.5 13.1667 13.3333 13.3333Z" fill="#10B981"/>
</svg>

