<svg preserveAspectRatio="none" width="100%" height="100%" overflow="visible" style="display: block;" viewBox="0 0 20 20" fill="none" xmlns="http://www.w3.org/2000/svg">
<g id="SVG">
<path id="Vector" d="M9.99959 18.3332C14.602 18.3332 18.3329 14.6023 18.3329 9.9999C18.3329 5.39753 14.602 1.66656 9.99959 1.66656C5.39722 1.66656 1.66626 5.39753 1.66626 9.9999C1.66626 14.6023 5.39722 18.3332 9.99959 18.3332Z" stroke="var(--stroke-0, #F7633E)" stroke-width="1.66667" stroke-linecap="round" stroke-linejoin="round"/>
<path id="Vector_2" d="M10 15C12.7614 15 15 12.7614 15 10C15 7.23858 12.7614 5 10 5C7.23858 5 5 7.23858 5 10C5 12.7614 7.23858 15 10 15Z" stroke="var(--stroke-0, #F7633E)" stroke-width="1.66667" stroke-linecap="round" stroke-linejoin="round"/>
<path id="Vector_3" d="M10.0004 11.6668C10.9209 11.6668 11.6671 10.9206 11.6671 10.0001C11.6671 9.07963 10.9209 8.33344 10.0004 8.33344C9.07993 8.33344 8.33374 9.07963 8.33374 10.0001C8.33374 10.9206 9.07993 11.6668 10.0004 11.6668Z" stroke="var(--stroke-0, #F7633E)" stroke-width="1.66667" stroke-linecap="round" stroke-linejoin="round"/>
</g>
</svg>
