<svg preserveAspectRatio="none" width="100%" height="100%" overflow="visible" style="display: block;" viewBox="0 0 3.75061 6.00063" fill="none" xmlns="http://www.w3.org/2000/svg">
<path id="Vector" fill-rule="evenodd" clip-rule="evenodd" d="M0.220718 1.27363C0.150807 1.20469 0.0952936 1.12255 0.0574028 1.03197C0.0195121 0.941394 0 0.844189 0 0.746006C0 0.647823 0.0195121 0.550618 0.0574028 0.46004C0.0952936 0.369463 0.150807 0.287319 0.220718 0.218381C0.362482 0.0784563 0.553655 0 0.752843 0C0.952031 0 1.1432 0.0784563 1.28497 0.218381L3.50872 2.42338C3.58536 2.49938 3.6462 2.58981 3.68772 2.68944C3.72923 2.78907 3.75061 2.89594 3.75061 3.00388C3.75061 3.11182 3.72923 3.21869 3.68772 3.31832C3.6462 3.41796 3.58536 3.50838 3.50872 3.58438L1.29247 5.78188C1.15067 5.92203 0.959339 6.00063 0.759968 6.00063C0.560597 6.00063 0.369265 5.92203 0.227468 5.78188C0.157558 5.71294 0.102043 5.6308 0.0641527 5.54022C0.0262619 5.44964 0.00674987 5.35244 0.00674987 5.25426C0.00674987 5.15607 0.0262619 5.05887 0.0641527 4.96829C0.102043 4.87771 0.157558 4.79557 0.227468 4.72663L1.96597 3.00388L0.220718 1.27363V1.27363Z" fill="var(--fill-0, #091E42)"/>
</svg>
