<svg preserveAspectRatio="none" width="100%" height="100%" overflow="visible" style="display: block;" viewBox="0 0 16 16" fill="none" xmlns="http://www.w3.org/2000/svg">
<g id="fi-rr-arrow-small-left">
<path id="Vector" d="M4.66667 8.6598H11.3333L9.14 10.8531C9.07751 10.9151 9.02792 10.9888 8.99407 11.0701C8.96023 11.1513 8.9428 11.2385 8.9428 11.3265C8.9428 11.4145 8.96023 11.5016 8.99407 11.5828C9.02792 11.6641 9.07751 11.7378 9.14 11.7998C9.26491 11.924 9.43388 11.9937 9.61 11.9937C9.78612 11.9937 9.95509 11.924 10.08 11.7998L12.94 8.93313C13.1904 8.68423 13.3318 8.34618 13.3333 7.99313V7.99313C13.3301 7.64239 13.1888 7.30706 12.94 7.0598L10.08 4.19313C10.0178 4.13141 9.94413 4.08254 9.86309 4.0493C9.78204 4.01607 9.69524 3.99912 9.60764 3.99943C9.52005 3.99974 9.43337 4.0173 9.35256 4.05111C9.27175 4.08492 9.19839 4.13431 9.13667 4.19647C9.07495 4.25863 9.02607 4.33233 8.99284 4.41338C8.9596 4.49443 8.94265 4.58123 8.94296 4.66882C8.94327 4.75642 8.96083 4.8431 8.99464 4.92391C9.02845 5.00472 9.07784 5.07808 9.14 5.1398L11.3333 7.32646L4.66667 7.32646C4.48986 7.32646 4.32029 7.3967 4.19526 7.52173C4.07024 7.64675 4 7.81632 4 7.99313C4 8.16994 4.07024 8.33951 4.19526 8.46453C4.32029 8.58956 4.48986 8.6598 4.66667 8.6598Z" fill="var(--fill-0, #FF7553)"/>
</g>
</svg>
