<svg preserveAspectRatio="none" width="100%" height="100%" overflow="visible" style="display: block;" viewBox="0 0 8.66786 5.3339" fill="none" xmlns="http://www.w3.org/2000/svg">
<g id="Frame 35334" clip-path="url(#clip0_606_7848)">
<path id="Vector" fill-rule="evenodd" clip-rule="evenodd" d="M5.53018 1.13212C5.46803 1.07084 5.41869 0.997821 5.38501 0.917308C5.35133 0.836794 5.33398 0.750391 5.33398 0.663116C5.33398 0.575842 5.35133 0.489438 5.38501 0.408925C5.41869 0.328411 5.46803 0.255395 5.53018 0.194117C5.65619 0.0697389 5.82612 0 6.00318 0C6.18023 0 6.35017 0.0697389 6.47618 0.194117L8.45285 2.15412C8.52097 2.22167 8.57505 2.30205 8.61195 2.39061C8.64886 2.47918 8.66786 2.57417 8.66786 2.67012C8.66786 2.76606 8.64886 2.86106 8.61195 2.94962C8.57505 3.03818 8.52097 3.11856 8.45285 3.18612L6.48284 5.13945C6.3568 5.26403 6.18673 5.3339 6.00951 5.3339C5.83229 5.3339 5.66222 5.26403 5.53618 5.13945C5.47404 5.07817 5.42469 5.00515 5.39101 4.92464C5.35733 4.84413 5.33998 4.75772 5.33998 4.67045C5.33998 4.58318 5.35733 4.49677 5.39101 4.41626C5.42469 4.33575 5.47404 4.26273 5.53618 4.20145L7.08151 2.67012L5.53018 1.13212V1.13212Z" fill="var(--fill-0, #2F5491)"/>
<path id="Vector_2" fill-rule="evenodd" clip-rule="evenodd" d="M0.196194 1.13212C0.134051 1.07084 0.0847054 0.997821 0.0510248 0.917308C0.0173441 0.836794 0 0.750391 0 0.663116C0 0.575842 0.0173441 0.489438 0.0510248 0.408925C0.0847054 0.328411 0.134051 0.255395 0.196194 0.194117C0.322206 0.0697389 0.492138 0 0.669194 0C0.84625 0 1.01618 0.0697389 1.14219 0.194117L3.11886 2.15412C3.18699 2.22167 3.24107 2.30205 3.27797 2.39061C3.31487 2.47918 3.33387 2.57417 3.33387 2.67012C3.33387 2.76606 3.31487 2.86106 3.27797 2.94962C3.24107 3.03818 3.18699 3.11856 3.11886 3.18612L1.14886 5.13945C1.02282 5.26403 0.852745 5.3339 0.675527 5.3339C0.498308 5.3339 0.328235 5.26403 0.202194 5.13945C0.140051 5.07817 0.0907053 5.00515 0.0570246 4.92464C0.023344 4.84413 0.00599988 4.75772 0.00599988 4.67045C0.00599988 4.58318 0.023344 4.49677 0.0570246 4.41626C0.0907053 4.33575 0.140051 4.26273 0.202194 4.20145L1.74753 2.67012L0.196194 1.13212V1.13212Z" fill="var(--fill-0, #2F5491)"/>
</g>
<defs>
<clipPath id="clip0_606_7848">
<rect width="8.66786" height="5.3339" fill="white"/>
</clipPath>
</defs>
</svg>
