<svg preserveAspectRatio="none" width="100%" height="100%" overflow="visible" style="display: block;" viewBox="0 0 3.56946 6.00063" fill="none" xmlns="http://www.w3.org/2000/svg">
<path id="Vector" fill-rule="evenodd" clip-rule="evenodd" d="M0.210057 1.27363C0.143523 1.20469 0.090691 1.12255 0.0546304 1.03197C0.0185697 0.941394 0 0.844189 0 0.746006C0 0.647823 0.0185697 0.550618 0.0546304 0.46004C0.090691 0.369463 0.143523 0.287319 0.210057 0.218381C0.344974 0.0784563 0.526914 0 0.716482 0C0.906049 0 1.08799 0.0784563 1.22291 0.218381L3.33925 2.42338C3.4122 2.49938 3.47009 2.58981 3.5096 2.68944C3.54912 2.78907 3.56946 2.89594 3.56946 3.00388C3.56946 3.11182 3.54912 3.21869 3.5096 3.31832C3.47009 3.41796 3.4122 3.50838 3.33925 3.58438L1.23004 5.78188C1.0951 5.92203 0.913004 6.00063 0.723262 6.00063C0.533521 6.00063 0.35143 5.92203 0.216482 5.78188C0.149948 5.71294 0.0971149 5.6308 0.0610542 5.54022C0.0249935 5.44964 0.00642386 5.35244 0.00642386 5.25426C0.00642386 5.15607 0.0249935 5.05887 0.0610542 4.96829C0.0971149 4.87771 0.149948 4.79557 0.216482 4.72663L1.87101 3.00388L0.210057 1.27363V1.27363Z" fill="var(--fill-0, #091E42)"/>
</svg>
