<svg preserveAspectRatio="none" width="100%" height="100%" overflow="visible" style="display: block;" viewBox="0 0 20 20" fill="none" xmlns="http://www.w3.org/2000/svg">
<g id="fi-rr-arrow-small-left">
<path id="Vector" d="M5.83354 10.8247H14.1669L11.4252 13.5664C11.3471 13.6439 11.2851 13.736 11.2428 13.8376C11.2005 13.9391 11.1787 14.0481 11.1787 14.1581C11.1787 14.2681 11.2005 14.377 11.2428 14.4786C11.2851 14.5801 11.3471 14.6723 11.4252 14.7497C11.5813 14.9049 11.7925 14.9921 12.0127 14.9921C12.2329 14.9921 12.4441 14.9049 12.6002 14.7497L16.1752 11.1664C16.4882 10.8553 16.665 10.4327 16.6669 9.99141V9.99141C16.6628 9.55299 16.4862 9.13383 16.1752 8.82475L12.6002 5.24142C12.5225 5.16427 12.4304 5.10317 12.3291 5.06163C12.2278 5.02008 12.1193 4.9989 12.0098 4.99929C11.9003 4.99967 11.7919 5.02162 11.6909 5.06388C11.5899 5.10614 11.4982 5.16789 11.421 5.24558C11.3439 5.32328 11.2828 5.41542 11.2412 5.51673C11.1997 5.61804 11.1785 5.72654 11.1789 5.83603C11.1793 5.94553 11.2012 6.05387 11.2435 6.15488C11.2858 6.2559 11.3475 6.3476 11.4252 6.42475L14.1669 9.15808H5.83354C5.61252 9.15808 5.40056 9.24588 5.24428 9.40216C5.088 9.55844 5.0002 9.7704 5.0002 9.99141C5.0002 10.2124 5.088 10.4244 5.24428 10.5807C5.40056 10.7369 5.61252 10.8247 5.83354 10.8247Z" fill="var(--fill-0, #FF7553)"/>
</g>
</svg>
