<svg preserveAspectRatio="none" width="100%" height="100%" overflow="visible" style="display: block;" viewBox="0 0 22 22" fill="none" xmlns="http://www.w3.org/2000/svg">
<g id="Frame" clip-path="url(#clip0_593_7688)">
<path id="Vector" d="M15.1038 11.484C16.984 11.484 18.5161 9.80925 18.5161 7.7715C18.5161 5.75693 16.9919 4.16114 15.1038 4.16114C13.2314 4.16114 11.691 5.7805 11.691 7.78721C11.6989 9.81711 13.2314 11.484 15.1038 11.484ZM6.00364 11.6576C7.63086 11.6576 8.96579 10.1962 8.96579 8.40321C8.96579 6.6495 7.64657 5.23561 6.00364 5.23561C4.37643 5.23561 3.03364 6.67346 3.0415 8.41893C3.04936 10.2045 4.37643 11.6576 6.00364 11.6576ZM15.1038 10.2913C13.9504 10.2913 12.9627 9.18539 12.9627 7.78721C12.9627 6.41221 13.9346 5.35425 15.1038 5.35425C16.2808 5.35425 17.2445 6.39689 17.2445 7.77111C17.2445 9.16968 16.2729 10.2913 15.1038 10.2913ZM6.00364 10.4806C5.03996 10.4806 4.2185 9.55664 4.2185 8.41893C4.2185 7.30518 5.03171 6.41261 6.00364 6.41261C6.99875 6.41261 7.79664 7.28946 7.79664 8.40321C7.79664 9.55664 6.97518 10.4806 6.00364 10.4806ZM1.6115 18.9015H7.81275C7.43325 18.6882 7.14096 18.214 7.19636 17.7324H1.41429C1.25636 17.7324 1.17739 17.6695 1.17739 17.5191C1.17739 15.5603 3.41275 13.7276 5.99618 13.7276C6.99129 13.7276 7.88386 13.9645 8.65032 14.4147C8.90441 14.0927 9.20526 13.8105 9.54289 13.5775C8.52382 12.9057 7.29968 12.5585 5.99618 12.5585C2.68596 12.5585 0 14.9596 0 17.5902C0 18.467 0.537036 18.9015 1.6115 18.9015ZM10.1428 18.9015H20.0648C21.3758 18.9015 22 18.5067 22 17.6377C22 15.5681 19.3851 12.5738 15.1038 12.5738C10.8142 12.5738 8.19971 15.5681 8.19971 17.6377C8.19971 18.5067 8.82357 18.9015 10.1428 18.9015ZM9.76368 17.7088C9.55821 17.7088 9.47139 17.6538 9.47139 17.4876C9.47139 16.192 11.4777 13.7673 15.1038 13.7673C18.722 13.7673 20.7279 16.192 20.7279 17.4876C20.7279 17.6534 20.6494 17.7088 20.4435 17.7088H9.76368Z" fill="var(--fill-0, #A1A8B2)"/>
</g>
<defs>
<clipPath id="clip0_593_7688">
<rect width="22" height="22" fill="white"/>
</clipPath>
</defs>
</svg>
