<svg preserveAspectRatio="none" width="100%" height="100%" overflow="visible" style="display: block;" viewBox="0 0 17.4 17.4" fill="none" xmlns="http://www.w3.org/2000/svg">
<g id="Group">
<path id="Vector" d="M5.7 0.7V16.7M0.7 2.7C0.7 2.16957 0.910714 1.66086 1.28579 1.28579C1.66086 0.910714 2.16957 0.7 2.7 0.7H14.7C15.2304 0.7 15.7391 0.910714 16.1142 1.28579C16.4893 1.66086 16.7 2.16957 16.7 2.7V14.7C16.7 15.2304 16.4893 15.7391 16.1142 16.1142C15.7391 16.4893 15.2304 16.7 14.7 16.7H2.7C2.16957 16.7 1.66086 16.4893 1.28579 16.1142C0.910714 15.7391 0.7 15.2304 0.7 14.7V2.7Z" stroke="var(--stroke-0, #7A869A)" stroke-width="1.4" stroke-linecap="round" stroke-linejoin="round"/>
<path id="Vector_2" d="M10.7 6.7L12.7 8.7L10.7 10.7" stroke="var(--stroke-0, #7A869A)" stroke-width="1.4" stroke-linecap="round" stroke-linejoin="round"/>
</g>
</svg>
