<svg preserveAspectRatio="none" width="100%" height="100%" overflow="visible" style="display: block;" viewBox="0 0 20 20" fill="none" xmlns="http://www.w3.org/2000/svg">
<g id="Frame" clip-path="url(#clip0_588_7623)">
<path id="Vector" d="M10.7031 8.82812C10.2344 8.71094 9.76563 8.47656 9.41406 8.125C9.0625 8.00781 8.94531 7.65625 8.94531 7.42188C8.94531 7.1875 9.0625 6.83594 9.29687 6.71875C9.64844 6.48437 10 6.25 10.3516 6.36719C11.0547 6.36719 11.6406 6.71875 11.9922 7.1875L13.0469 5.78125C12.6953 5.42969 12.3437 5.19531 11.9922 4.96094C11.6406 4.72656 11.1719 4.60938 10.7031 4.60938V2.96875H9.29687V4.60938C8.71094 4.72656 8.125 5.07812 7.65625 5.54687C7.1875 6.13281 6.83594 6.83594 6.95313 7.53906C6.95313 8.24219 7.1875 8.94531 7.65625 9.41406C8.24219 10 9.0625 10.3516 9.76563 10.7031C10.1172 10.8203 10.5859 11.0547 10.9375 11.2891C11.1719 11.5234 11.2891 11.875 11.2891 12.2266C11.2891 12.5781 11.1719 12.9297 10.9375 13.2813C10.5859 13.6328 10.1172 13.75 9.76563 13.75C9.29688 13.75 8.71094 13.6328 8.35938 13.2813C8.00781 13.0469 7.65625 12.6953 7.42188 12.3438L6.25 13.6328C6.60156 14.1016 6.95313 14.4531 7.42188 14.8047C8.00781 15.1563 8.71094 15.5078 9.41406 15.5078V17.0312H10.7031V15.2734C11.4063 15.1562 11.9922 14.8047 12.4609 14.3359C13.0469 13.75 13.3984 12.8125 13.3984 11.9922C13.3984 11.2891 13.1641 10.4688 12.5781 10C11.9922 9.41406 11.4063 9.0625 10.7031 8.82812ZM10 0.625C4.84375 0.625 0.625 4.84375 0.625 10C0.625 15.1563 4.84375 19.375 10 19.375C15.1563 19.375 19.375 15.1563 19.375 10C19.375 4.84375 15.1563 0.625 10 0.625ZM10 18.0859C5.54688 18.0859 1.91406 14.4531 1.91406 10C1.91406 5.54688 5.54688 1.91406 10 1.91406C14.4531 1.91406 18.0859 5.54688 18.0859 10C18.0859 14.4531 14.4531 18.0859 10 18.0859Z" fill="var(--fill-0, #F7633E)"/>
</g>
<defs>
<clipPath id="clip0_588_7623">
<rect width="20" height="20" fill="white"/>
</clipPath>
</defs>
</svg>
