<svg preserveAspectRatio="none" width="100%" height="100%" overflow="visible" style="display: block;" viewBox="0 0 16 16" fill="none" xmlns="http://www.w3.org/2000/svg">
<g id="Frame">
<path id="Vector" d="M10.4987 1.96466C10.7487 1.7147 11.0878 1.57428 11.4414 1.57428C11.7949 1.57428 12.134 1.7147 12.384 1.96466L14.034 3.61466C14.1579 3.73848 14.2562 3.88549 14.3232 4.04729C14.3902 4.20909 14.4247 4.38252 14.4247 4.55766C14.4247 4.7328 14.3902 4.90623 14.3232 5.06803C14.2562 5.22983 14.1579 5.37684 14.034 5.50066L6.10536 13.4293L1.85203 14.1467L2.57003 9.89333L10.4987 1.96466ZM10.346 4.00266L11.996 5.65266L13.0914 4.55733L11.4414 2.90799L10.346 4.00266ZM11.0527 6.59599L9.40336 4.94599L3.81403 10.5353L3.4787 12.52L5.46336 12.1853L11.0534 6.59533L11.0527 6.59599Z" fill="var(--fill-0, #F7633E)"/>
</g>
</svg>
