<svg preserveAspectRatio="none" width="100%" height="100%" overflow="visible" style="display: block;" viewBox="0 0 22 22" fill="none" xmlns="http://www.w3.org/2000/svg">
<g id="Frame">
<path id="Vector" d="M11.0007 11.917C11.9732 11.917 12.9058 11.5307 13.5934 10.8431C14.2811 10.1554 14.6674 9.22282 14.6674 8.25036C14.6674 7.2779 14.2811 6.34527 13.5934 5.65763C12.9058 4.97 11.9732 4.58369 11.0007 4.58369C10.0283 4.58369 9.09562 4.97 8.40799 5.65763C7.72036 6.34527 7.33405 7.2779 7.33405 8.25036C7.33405 9.22282 7.72036 10.1554 8.40799 10.8431C9.09562 11.5307 10.0283 11.917 11.0007 11.917ZM11.0007 11.917C9.54203 11.917 8.14308 12.4965 7.11163 13.5279C6.08018 14.5594 5.50072 15.9583 5.50072 17.417V20.167M11.0007 11.917C12.4594 11.917 13.8584 12.4965 14.8898 13.5279C15.9213 14.5594 16.5007 15.9583 16.5007 17.417V20.167M11.9174 4.58369C12.2877 3.05836 13.7645 1.83369 15.584 1.83369C17.575 1.83369 19.2324 3.47452 19.2507 5.50036C19.2324 7.52619 17.575 9.16702 15.584 9.16702M15.584 9.16702H14.6674M15.584 9.16702C18.598 9.16702 21.084 11.6292 21.084 14.667V16.5004M10.084 4.58369C9.71372 3.05836 8.23697 1.83369 6.41738 1.83369C4.42638 1.83369 2.76905 3.47452 2.75072 5.50036C2.76905 7.52619 4.42638 9.16702 6.41738 9.16702M6.41738 9.16702H7.33405M6.41738 9.16702C3.40338 9.16702 0.917383 11.6292 0.917383 14.667V16.5004" stroke="var(--stroke-0, white)" stroke-width="1.83333"/>
</g>
</svg>
