<svg preserveAspectRatio="none" width="100%" height="100%" overflow="visible" style="display: block;" viewBox="0 0 19.7079 18.7923" fill="none" xmlns="http://www.w3.org/2000/svg">
<g id="Group">
<path id="Vector" d="M9.85866 8.02084H9.866M13.5207 8.02084H13.529M6.19566 8.02084H6.20391" stroke="var(--stroke-0, #FF7553)" stroke-width="1.83333" stroke-linecap="round" stroke-linejoin="round"/>
<path id="Vector_2" d="M0.6875 8.02084C0.6875 7.31501 0.699417 6.62476 0.724167 5.95834C0.80025 3.78309 0.83875 2.69501 1.72333 1.80309C2.60792 0.912095 3.72717 0.864428 5.96383 0.768178C7.25989 0.713765 8.55696 0.68687 9.85417 0.687511C11.2108 0.687511 12.5171 0.715011 13.7445 0.768178C15.9812 0.864428 17.0995 0.912094 17.985 1.80401C18.8696 2.69501 18.9081 3.78309 18.9842 5.95834C19.0325 7.33292 19.0325 8.70877 18.9842 10.0833C18.9081 12.2586 18.8696 13.3467 17.985 14.2386C17.1004 15.1296 15.9812 15.1773 13.7445 15.2735C13.0711 15.3022 12.3759 15.3236 11.6591 15.3377C10.9808 15.3505 10.6407 15.356 10.3418 15.4706C10.043 15.5852 9.79183 15.7988 9.2895 16.2296L7.29208 17.9438C7.19487 18.0271 7.0758 18.0807 6.94901 18.0984C6.82221 18.1161 6.69301 18.097 6.57673 18.0434C6.46045 17.9899 6.36197 17.9041 6.29298 17.7962C6.22399 17.6884 6.18738 17.563 6.1875 17.435V15.2827L5.96383 15.2735C3.72717 15.1773 2.60883 15.1296 1.72333 14.2377C0.83875 13.3467 0.80025 12.2586 0.724167 10.0833C0.699858 9.39611 0.687633 8.70851 0.6875 8.02084Z" stroke="var(--stroke-0, #FF7553)" stroke-width="1.375" stroke-linecap="round" stroke-linejoin="round"/>
</g>
</svg>
