<svg preserveAspectRatio="none" width="100%" height="100%" overflow="visible" style="display: block;" viewBox="0 0 22 22" fill="none" xmlns="http://www.w3.org/2000/svg">
<g id="Frame" clip-path="url(#clip0_599_7719)">
<g id="Group">
<path id="Vector" d="M15.125 6.87523C15.125 7.96925 14.6904 9.01846 13.9168 9.79205C13.1432 10.5656 12.094 11.0002 11 11.0002C9.90598 11.0002 8.85677 10.5656 8.08318 9.79205C7.3096 9.01846 6.875 7.96925 6.875 6.87523C6.875 5.78122 7.3096 4.73201 8.08318 3.95842C8.85677 3.18483 9.90598 2.75023 11 2.75023C12.094 2.75023 13.1432 3.18483 13.9168 3.95842C14.6904 4.73201 15.125 5.78122 15.125 6.87523ZM11 9.62523C11.7293 9.62523 12.4288 9.3355 12.9445 8.81978C13.4603 8.30405 13.75 7.60458 13.75 6.87523C13.75 6.14589 13.4603 5.44642 12.9445 4.93069C12.4288 4.41497 11.7293 4.12523 11 4.12523C10.2707 4.12523 9.57118 4.41497 9.05546 4.93069C8.53973 5.44642 8.25 6.14589 8.25 6.87523C8.25 7.60458 8.53973 8.30405 9.05546 8.81978C9.57118 9.3355 10.2707 9.62523 11 9.62523Z" fill="var(--fill-0, #A1A8B2)"/>
<path id="Vector_2" d="M11.352 19.2502C11.1943 18.8037 11.0886 18.3405 11.0371 17.8697H4.125C4.12638 17.5315 4.33675 16.514 5.269 15.5817C6.1655 14.6852 7.85262 13.7502 11 13.7502C11.3575 13.7502 11.6971 13.7626 12.0175 13.7846C12.3282 13.3157 12.6995 12.8909 13.123 12.5224C12.4809 12.4275 11.7755 12.3752 11 12.3752C4.125 12.3752 2.75 16.5002 2.75 17.8752C2.75 19.2502 4.125 19.2502 4.125 19.2502H11.352Z" fill="var(--fill-0, #A1A8B2)"/>
</g>
<path id="Vector_3" d="M17.1179 12.2358C14.4215 12.2358 12.2357 14.4216 12.2357 17.1179C12.2357 19.8143 14.4215 22.0001 17.1179 22.0001C19.8142 22.0001 22 19.8143 22 17.1179C22 14.4216 19.8142 12.2358 17.1179 12.2358ZM17.5394 19.7649V20.4525H16.8817V19.7727C15.8024 19.6249 15.3298 18.738 15.3298 18.738L16.0016 18.1761C16.0016 18.1761 16.4306 18.9228 17.2065 18.9228C17.6352 18.9228 17.9603 18.6934 17.9603 18.3014C17.9603 17.385 15.4914 17.4962 15.4914 15.7961C15.4914 15.0571 16.0759 14.5247 16.8814 14.3987V13.7118H17.5391V14.3987C18.1007 14.4726 18.7658 14.7682 18.7658 15.4041V15.8919H17.8938V15.6554C17.8938 15.4115 17.5831 15.2489 17.2354 15.2489C16.792 15.2489 16.4672 15.4706 16.4672 15.781C16.4672 16.7196 18.9361 16.4905 18.9361 18.2718C18.9361 19.0041 18.3893 19.639 17.5394 19.7649Z" fill="var(--fill-0, #A1A8B2)"/>
</g>
<defs>
<clipPath id="clip0_599_7719">
<rect width="22" height="22" fill="white"/>
</clipPath>
</defs>
</svg>
