<svg preserveAspectRatio="none" width="100%" height="100%" overflow="visible" style="display: block;" viewBox="0 0 17.2 15.6" fill="none" xmlns="http://www.w3.org/2000/svg">
<g id="Group">
<path id="Vector" d="M16.6 7C16.6 4.1704 16.6 2.7552 15.7576 1.8104C15.622 1.65862 15.4734 1.5189 15.3136 1.3928C14.3104 0.6 12.808 0.6 9.8 0.6H7.4C4.3928 0.6 2.8896 0.6 1.8856 1.392C1.72507 1.52 1.57733 1.65947 1.4424 1.8104C0.600001 2.7544 0.600001 4.1704 0.600001 7C0.600001 9.8296 0.600001 11.2448 1.4424 12.1896C1.57733 12.3411 1.72507 12.4803 1.8856 12.6072C2.8896 13.4 4.3928 13.4 7.4 13.4H8.6M13.8 15V9.4M11 12.2H16.6M3.4 7H3.3928" stroke="var(--stroke-0, #A1A8B2)" stroke-width="1.2" stroke-linecap="round" stroke-linejoin="round"/>
<path id="Vector_2" d="M10.6 7.00003C10.6 7.53046 10.3893 8.03917 10.0142 8.41424C9.63914 8.78932 9.13044 9.00003 8.6 9.00003C8.06957 9.00003 7.56086 8.78932 7.18579 8.41424C6.81072 8.03917 6.6 7.53046 6.6 7.00003C6.6 6.4696 6.81072 5.96089 7.18579 5.58582C7.56086 5.21074 8.06957 5.00003 8.6 5.00003C9.13044 5.00003 9.63914 5.21074 10.0142 5.58582C10.3893 5.96089 10.6 6.4696 10.6 7.00003Z" stroke="var(--stroke-0, #A1A8B2)" stroke-width="1.2" stroke-linecap="round" stroke-linejoin="round"/>
</g>
</svg>
