<svg preserveAspectRatio="none" width="100%" height="100%" overflow="visible" style="display: block;" viewBox="0 0 16.6667 16.6667" fill="none" xmlns="http://www.w3.org/2000/svg">
<path id="Vector" fill-rule="evenodd" clip-rule="evenodd" d="M8.33333 16.6667C3.73083 16.6667 0 12.9358 0 8.33333C0 3.73083 3.73083 0 8.33333 0C12.9358 0 16.6667 3.73083 16.6667 8.33333C16.6667 12.9358 12.9358 16.6667 8.33333 16.6667ZM9.16667 5C9.16667 5.46024 8.79357 5.83333 8.33333 5.83333C7.87309 5.83333 7.5 5.46024 7.5 5C7.5 4.53976 7.87309 4.16667 8.33333 4.16667C8.79357 4.16667 9.16667 4.53976 9.16667 5ZM8.33333 6.66667C8.79357 6.66667 9.16667 7.03976 9.16667 7.5V11.6667C9.16667 12.1269 8.79357 12.5 8.33333 12.5C7.87309 12.5 7.5 12.1269 7.5 11.6667V7.5C7.5 7.03976 7.87309 6.66667 8.33333 6.66667Z" fill="var(--fill-0, #BF2600)"/>
</svg>
