<svg preserveAspectRatio="none" width="100%" height="100%" overflow="visible" style="display: block;" viewBox="0 0 19.3324 19.6313" fill="none" xmlns="http://www.w3.org/2000/svg">
<g id="Group">
<path id="Vector" d="M14.6273 9.98148L9.68256 14.9263L12.5353 17.779C13.9008 19.1445 16.1146 19.1445 17.4801 17.779C18.8456 16.4135 18.8456 14.1997 17.4801 12.8342L14.6273 9.98148Z" stroke="var(--stroke-0, #A1A8B2)" stroke-width="1.4225" stroke-linecap="round"/>
<path id="Vector_2" d="M4.70511 9.64992L9.64987 4.7051L6.79713 1.85234C5.43167 0.486874 3.21782 0.486883 1.85235 1.85234C0.486893 3.21781 0.486893 5.43166 1.85235 6.79713L4.70511 9.64992Z" stroke="var(--stroke-0, #A1A8B2)" stroke-width="1.4225" stroke-linecap="round"/>
<path id="Vector_3" d="M10.5549 13.5163L8.76593 11.7274" stroke="var(--stroke-0, #A1A8B2)" stroke-width="1.4225" stroke-linecap="round"/>
<path id="Vector_4" d="M13.2175 10.8538L11.4285 9.06481" stroke="var(--stroke-0, #A1A8B2)" stroke-width="1.4225" stroke-linecap="round"/>
<path id="Vector_5" d="M17.48 17.779L18.6211 18.9201" stroke="var(--stroke-0, #A1A8B2)" stroke-width="1.4225" stroke-linecap="round"/>
<path id="Vector_6" d="M1.85235 1.85235L0.711251 0.711251" stroke="var(--stroke-0, #A1A8B2)" stroke-width="1.4225" stroke-linecap="round"/>
<path id="Vector_7" d="M8.92185 15.687L15.3881 9.22074" stroke="var(--stroke-0, #A1A8B2)" stroke-width="1.4225" stroke-linecap="round"/>
<path id="Vector_8" d="M10.4105 3.94435L3.9443 10.4106" stroke="var(--stroke-0, #A1A8B2)" stroke-width="1.4225" stroke-linecap="round"/>
</g>
</svg>
