<svg width="40" height="40" viewBox="0 0 40 40" fill="none" xmlns="http://www.w3.org/2000/svg">
<rect width="40" height="40" rx="8" fill="#FFF1F0"/>
<g clip-path="url(#clip0_283_22054)">
<path d="M25 10C25.5304 10 26.0391 10.2107 26.4142 10.5858C26.7893 10.9609 27 11.4696 27 12V28C27 28.5304 26.7893 29.0391 26.4142 29.4142C26.0391 29.7893 25.5304 30 25 30H15C14.4696 30 13.9609 29.7893 13.5858 29.4142C13.2107 29.0391 13 28.5304 13 28V12C13 11.4696 13.2107 10.9609 13.5858 10.5858C13.9609 10.2107 14.4696 10 15 10H25ZM25.6 25.388H14.4V28C14.4 28.1591 14.4632 28.3117 14.5757 28.4243C14.6883 28.5368 14.8409 28.6 15 28.6H25C25.1591 28.6 25.3117 28.5368 25.4243 28.4243C25.5368 28.3117 25.6 28.1591 25.6 28V25.388ZM20 26C20.2652 26 20.5196 26.1054 20.7071 26.2929C20.8946 26.4804 21 26.7348 21 27C21 27.2652 20.8946 27.5196 20.7071 27.7071C20.5196 27.8946 20.2652 28 20 28C19.7348 28 19.4804 27.8946 19.2929 27.7071C19.1054 27.5196 19 27.2652 19 27C19 26.7348 19.1054 26.4804 19.2929 26.2929C19.4804 26.1054 19.7348 26 20 26ZM25 11.4H15C14.8409 11.4 14.6883 11.4632 14.5757 11.5757C14.4632 11.6883 14.4 11.8409 14.4 12V23.988H25.6V12C25.6 11.8409 25.5368 11.6883 25.4243 11.5757C25.3117 11.4632 25.1591 11.4 25 11.4Z" fill="#EC5446"/>
</g>
<defs>
<clipPath id="clip0_283_22054">
<rect width="20" height="20" fill="white" transform="translate(10 10)"/>
</clipPath>
</defs>
</svg>
