<svg preserveAspectRatio="none" width="100%" height="100%" overflow="visible" style="display: block;" viewBox="0 0 7.45937 12.8556" fill="none" xmlns="http://www.w3.org/2000/svg">
<g id="Group">
<path id="Vector (Stroke)" fill-rule="evenodd" clip-rule="evenodd" d="M1.35437 3.0525C1.35437 1.37288 2.71461 0 4.40687 0C6.0974 0 7.45937 1.36197 7.45937 3.0525C7.45937 4.7062 6.15785 6.04533 4.52343 6.10455C4.48602 6.10591 4.44857 6.1042 4.41146 6.09947C4.37435 6.1042 4.3369 6.10591 4.29948 6.10455C2.66421 6.0453 1.36617 4.70643 1.35439 3.05741L1.35437 3.0525ZM2.72937 3.05005C2.73705 3.94992 3.4295 4.67145 4.30077 4.728C4.37398 4.7215 4.44895 4.7215 4.52215 4.728C5.39492 4.6714 6.08437 3.94893 6.08437 3.0525C6.08437 2.12136 5.33801 1.375 4.40687 1.375C3.47829 1.375 2.73069 2.12746 2.72937 3.05005Z" fill="var(--fill-0, #A1A8B2)"/>
<path id="Vector (Stroke)_2" fill-rule="evenodd" clip-rule="evenodd" d="M2.03761 8.86829C2.84406 8.33348 4.05965 8.12638 5.17741 8.32219C5.55141 8.38771 5.90771 8.13763 5.97323 7.76363C6.03874 7.38963 5.78867 7.03333 5.41467 6.96782C4.02105 6.72368 2.43198 6.95644 1.27676 7.72299L1.27675 7.72298L1.27552 7.72381C0.485915 8.25021 2.48353e-09 9.01298 2.48353e-09 9.86334C2.48353e-09 10.7135 0.48566 11.4761 1.2749 12.0025C2.42161 12.7702 3.992 13.0023 5.38237 12.7689C5.75682 12.706 6.00942 12.3515 5.94655 11.977C5.88369 11.6026 5.52917 11.35 5.15471 11.4128C4.03366 11.601 2.83604 11.3932 2.03947 10.8596L2.03823 10.8588C1.53533 10.5235 1.375 10.1496 1.375 9.86334C1.375 9.57716 1.5352 9.20345 2.03761 8.86829Z" fill="var(--fill-0, #A1A8B2)"/>
</g>
</svg>
