<svg preserveAspectRatio="none" width="100%" height="100%" overflow="visible" style="display: block;" viewBox="0 0 8.64875 12.8631" fill="none" xmlns="http://www.w3.org/2000/svg">
<g id="Group">
<path id="Vector (Stroke)" fill-rule="evenodd" clip-rule="evenodd" d="M4.24187 1.375C3.31074 1.375 2.56438 2.12136 2.56438 3.0525C2.56438 3.94893 3.25383 4.6714 4.12659 4.728C4.20083 4.72141 4.27688 4.7215 4.35107 4.72828C5.21526 4.67874 5.91166 3.95477 5.91937 3.05005C5.91805 2.12746 5.17045 1.375 4.24187 1.375ZM1.18938 3.0525C1.18938 1.36197 2.55134 0 4.24187 0C5.93414 0 7.29438 1.37288 7.29438 3.0525V3.05741H7.29436C7.28261 4.702 5.98788 6.05707 4.34429 6.10472C4.30853 6.10575 4.27275 6.10399 4.23729 6.09947C4.20018 6.1042 4.16273 6.10591 4.12532 6.10455C2.4909 6.04533 1.18938 4.7062 1.18938 3.0525Z" fill="var(--fill-0, #A1A8B2)"/>
<path id="Vector (Stroke)_2" fill-rule="evenodd" clip-rule="evenodd" d="M4.32781 6.88875C5.39894 6.88875 6.50702 7.15549 7.37323 7.73296C8.16283 8.25937 8.64875 9.02213 8.64875 9.8725C8.64875 10.7227 8.16297 11.4854 7.37355 12.0118C6.50367 12.5934 5.39596 12.8631 4.32437 12.8631C3.2528 12.8631 2.1451 12.5934 1.27522 12.0118C0.485793 11.4854 1.61429e-07 10.7228 1.61429e-07 9.8725C1.61429e-07 9.02213 0.485916 8.25937 1.27552 7.73296L1.27717 7.73186L1.27717 7.73186C2.14707 7.15556 3.25649 6.88875 4.32781 6.88875ZM2.03742 8.87758C1.53516 9.2127 1.375 9.58635 1.375 9.8725C1.375 10.1588 1.53533 10.5327 2.03823 10.868L2.03906 10.8685C2.63576 11.2676 3.462 11.4881 4.32437 11.4881C5.18675 11.4881 6.01299 11.2676 6.60969 10.8685L6.61052 10.868C7.11341 10.5327 7.27375 10.1588 7.27375 9.8725C7.27375 9.5862 7.11341 9.2123 6.61052 8.87703C6.01923 8.48284 5.19314 8.26375 4.32781 8.26375C3.46308 8.26375 2.63413 8.48257 2.03742 8.87758Z" fill="var(--fill-0, #A1A8B2)"/>
</g>
</svg>
