<svg preserveAspectRatio="none" width="100%" height="100%" overflow="visible" style="display: block;" viewBox="0 0 7.45938 12.8556" fill="none" xmlns="http://www.w3.org/2000/svg">
<g id="Group">
<path id="Vector (Stroke)" fill-rule="evenodd" clip-rule="evenodd" d="M3.0525 1.375C2.12136 1.375 1.375 2.12136 1.375 3.0525C1.375 3.94893 2.06445 4.6714 2.93722 4.728C3.01043 4.7215 3.0854 4.7215 3.1586 4.728C4.02987 4.67145 4.72232 3.94992 4.72999 3.05005C4.72867 2.12746 3.98108 1.375 3.0525 1.375ZM0 3.0525C0 1.36197 1.36197 0 3.0525 0C4.74476 0 6.105 1.37288 6.105 3.0525V3.05741H6.10498C6.0932 4.70643 4.79517 6.0453 3.15989 6.10455C3.12248 6.10591 3.08503 6.1042 3.04792 6.09947C3.01081 6.1042 2.97336 6.10591 2.93594 6.10455C1.30153 6.04533 0 4.7062 0 3.0525Z" fill="var(--fill-0, #A1A8B2)"/>
<path id="Vector (Stroke)_2" fill-rule="evenodd" clip-rule="evenodd" d="M2.0447 6.96782C3.43832 6.72368 5.0274 6.95643 6.18262 7.72299L6.18386 7.72381C6.97346 8.25021 7.45938 9.01298 7.45938 9.86334C7.45938 10.7137 6.97346 11.4765 6.18386 12.0029C5.03719 12.7703 3.46712 13.0022 2.07701 12.7689C1.70255 12.706 1.44996 12.3515 1.51282 11.977C1.57569 11.6026 1.9302 11.35 2.30466 11.4128C3.42571 11.601 4.62334 11.3932 5.4199 10.8596L5.42115 10.8588C5.92404 10.5235 6.08438 10.1496 6.08438 9.86334C6.08438 9.57716 5.92418 9.20346 5.42179 8.8683C4.61534 8.33348 3.39973 8.12638 2.28196 8.32219C1.90796 8.38771 1.55166 8.13763 1.48614 7.76363C1.42062 7.38963 1.6707 7.03333 2.0447 6.96782Z" fill="var(--fill-0, #A1A8B2)"/>
</g>
</svg>
