<svg preserveAspectRatio="none" width="100%" height="100%" overflow="visible" style="display: block;" viewBox="0 0 22 22" fill="none" xmlns="http://www.w3.org/2000/svg">
<g id="Frame">
<path id="Vector" d="M3.66663 4.58333C3.66663 4.34022 3.76321 4.10706 3.93512 3.93515C4.10702 3.76324 4.34018 3.66667 4.5833 3.66667H8.24996C8.49308 3.66667 8.72624 3.76324 8.89814 3.93515C9.07005 4.10706 9.16663 4.34022 9.16663 4.58333V9.16667C9.16663 9.40978 9.07005 9.64294 8.89814 9.81485C8.72624 9.98676 8.49308 10.0833 8.24996 10.0833H4.5833C4.34018 10.0833 4.10702 9.98676 3.93512 9.81485C3.76321 9.64294 3.66663 9.40978 3.66663 9.16667V4.58333ZM12.8333 4.58333C12.8333 4.34022 12.9299 4.10706 13.1018 3.93515C13.2737 3.76324 13.5068 3.66667 13.75 3.66667H17.4166C17.6597 3.66667 17.8929 3.76324 18.0648 3.93515C18.2367 4.10706 18.3333 4.34022 18.3333 4.58333V6.41667C18.3333 6.65978 18.2367 6.89294 18.0648 7.06485C17.8929 7.23676 17.6597 7.33333 17.4166 7.33333H13.75C13.5068 7.33333 13.2737 7.23676 13.1018 7.06485C12.9299 6.89294 12.8333 6.65978 12.8333 6.41667V4.58333ZM3.66663 14.6667C3.66663 14.4236 3.76321 14.1904 3.93512 14.0185C4.10702 13.8466 4.34018 13.75 4.5833 13.75H8.24996C8.49308 13.75 8.72624 13.8466 8.89814 14.0185C9.07005 14.1904 9.16663 14.4236 9.16663 14.6667V17.4167C9.16663 17.6598 9.07005 17.8929 8.89814 18.0648C8.72624 18.2368 8.49308 18.3333 8.24996 18.3333H4.5833C4.34018 18.3333 4.10702 18.2368 3.93512 18.0648C3.76321 17.8929 3.66663 17.6598 3.66663 17.4167V14.6667ZM12.8333 11.9167C12.8333 11.6736 12.9299 11.4404 13.1018 11.2685C13.2737 11.0966 13.5068 11 13.75 11H17.4166C17.6597 11 17.8929 11.0966 18.0648 11.2685C18.2367 11.4404 18.3333 11.6736 18.3333 11.9167V17.4167C18.3333 17.6598 18.2367 17.8929 18.0648 18.0648C17.8929 18.2368 17.6597 18.3333 17.4166 18.3333H13.75C13.5068 18.3333 13.2737 18.2368 13.1018 18.0648C12.9299 17.8929 12.8333 17.6598 12.8333 17.4167V11.9167Z" stroke="var(--stroke-0, #FF7553)" stroke-width="1.6"/>
</g>
</svg>
