<svg preserveAspectRatio="none" width="100%" height="100%" overflow="visible" style="display: block;" viewBox="0 0 10.5218 10.5218" fill="none" xmlns="http://www.w3.org/2000/svg">
<path id="plus" d="M0.715681 5.97656H4.5452V9.80608C4.5452 10.1953 4.86537 10.5218 5.26088 10.5218C5.65639 10.5218 5.97656 10.1953 5.97656 9.80608V5.97656H9.80608C10.1953 5.97656 10.5218 5.65639 10.5218 5.26088C10.5218 4.86537 10.1953 4.5452 9.80608 4.5452H5.97656V0.715681C5.97656 0.326451 5.65639 0 5.26088 0C4.86537 0 4.5452 0.326451 4.5452 0.715681V4.5452H0.715681C0.326451 4.5452 0 4.86537 0 5.26088C0 5.65639 0.326451 5.97656 0.715681 5.97656Z" fill="var(--fill-0, #2E518A)"/>
</svg>
