<svg preserveAspectRatio="none" width="100%" height="100%" overflow="visible" style="display: block;" viewBox="0 0 17.4174 19.7084" fill="none" xmlns="http://www.w3.org/2000/svg">
<g id="Group">
<path id="Vector" d="M8.93818 0.6875H9.64677C12.6351 0.6875 14.1311 0.6875 15.1688 1.419C15.4658 1.628 15.7298 1.87733 15.9525 2.15692C16.7298 3.13408 16.7298 4.54025 16.7298 7.35442V9.68733C16.7298 12.4034 16.7298 13.7619 16.2999 14.8463C15.6088 16.5907 14.1476 17.9657 12.2941 18.6166C11.1419 19.0208 9.69993 19.0208 6.81243 19.0208C5.16427 19.0208 4.33927 19.0208 3.6811 18.7898C2.62235 18.4177 1.78727 17.6321 1.39218 16.6357C1.14652 16.016 1.14652 15.2396 1.14652 13.6877V9.39583" stroke="var(--stroke-0, #A1A8B2)" stroke-width="1.375" stroke-linecap="round" stroke-linejoin="round"/>
<path id="Vector_2" d="M16.7298 9.85417C16.7298 10.6645 16.408 11.4416 15.835 12.0146C15.262 12.5875 14.4849 12.9094 13.6746 12.9094C13.0641 12.9094 12.3445 12.8031 11.7514 12.9617C11.4924 13.0313 11.2562 13.1678 11.0665 13.3575C10.8769 13.5472 10.7403 13.7834 10.6707 14.0424C10.5121 14.6355 10.6184 15.3551 10.6184 15.9656C10.6184 16.3668 10.5394 16.7641 10.3859 17.1348C10.2323 17.5055 10.0073 17.8423 9.72357 18.126C9.43986 18.4097 9.10306 18.6347 8.73238 18.7883C8.3617 18.9418 7.9644 19.0208 7.56318 19.0208M5.00202 7.50842C5.33565 7.83653 5.78486 8.02041 6.25281 8.02041C6.72075 8.02041 7.16996 7.83653 7.5036 7.50842C7.66782 7.34715 7.79826 7.15478 7.8873 6.94254C7.97634 6.73031 8.0222 6.50245 8.0222 6.27229C8.0222 6.04213 7.97634 5.81428 7.8873 5.60204C7.79826 5.3898 7.66782 5.19743 7.5036 5.03617L5.93977 3.4925C5.64666 3.20462 5.26334 3.0265 4.85431 2.9881C4.44527 2.9497 4.03549 3.05337 3.69393 3.28167M3.70768 1.20083C3.37405 0.872719 2.92484 0.688843 2.45689 0.688843C1.98895 0.688843 1.53974 0.872719 1.2061 1.20083C1.04188 1.3621 0.911444 1.55447 0.822402 1.76671C0.73336 1.97895 0.6875 2.2068 0.6875 2.43696C0.6875 2.66712 0.73336 2.89497 0.822402 3.10721C0.911444 3.31945 1.04188 3.51182 1.2061 3.67308L2.76993 5.21583C3.39143 5.83 4.36127 5.89233 5.05243 5.40008" stroke="var(--stroke-0, #A1A8B2)" stroke-width="1.375" stroke-linecap="round" stroke-linejoin="round"/>
</g>
</svg>
