<svg preserveAspectRatio="none" width="100%" height="100%" overflow="visible" style="display: block;" viewBox="0 0 16 16" fill="none" xmlns="http://www.w3.org/2000/svg">
<g id="Frame">
<path id="Vector" d="M8.00005 13.8333C6.71817 13.8333 5.4888 13.3241 4.58237 12.4177C3.67594 11.5113 3.16672 10.2819 3.16672 9.00001C3.16672 7.71813 3.67594 6.48876 4.58237 5.58233C5.4888 4.6759 6.71817 4.16668 8.00005 4.16668H9.66672C9.79933 4.16668 9.9265 4.21936 10.0203 4.31313C10.114 4.40689 10.1667 4.53407 10.1667 4.66668C10.1667 4.79929 10.114 4.92647 10.0203 5.02023C9.9265 5.114 9.79933 5.16668 9.66672 5.16668H8.00005C7.24189 5.16668 6.50075 5.3915 5.87037 5.81271C5.23998 6.23392 4.74865 6.83261 4.45851 7.53306C4.16838 8.23351 4.09247 9.00427 4.24038 9.74786C4.38829 10.4915 4.75337 11.1745 5.28948 11.7106C5.82558 12.2467 6.50861 12.6118 7.25221 12.7597C7.9958 12.9076 8.76655 12.8317 9.467 12.5416C10.1675 12.2514 10.7661 11.7601 11.1874 11.1297C11.6086 10.4993 11.8334 9.75817 11.8334 9.00001C11.8334 8.8674 11.8861 8.74023 11.9798 8.64646C12.0736 8.55269 12.2008 8.50001 12.3334 8.50001C12.466 8.50001 12.5932 8.55269 12.6869 8.64646C12.7807 8.74023 12.8334 8.8674 12.8334 9.00001C12.8316 10.2814 12.3218 11.5097 11.4158 12.4157C10.5097 13.3218 9.28139 13.8316 8.00005 13.8333Z" fill="var(--fill-0, #F7633E)"/>
<path id="Vector_2" d="M7.99997 7.16665C7.93428 7.16696 7.86919 7.15415 7.80851 7.12896C7.74784 7.10378 7.6928 7.06673 7.64664 7.01999C7.55301 6.92623 7.50041 6.79915 7.50041 6.66665C7.50041 6.53415 7.55301 6.40707 7.64664 6.31332L9.29331 4.66665L7.64664 3.01999C7.59751 2.97421 7.55811 2.91901 7.53079 2.85768C7.50346 2.79634 7.48876 2.73014 7.48758 2.663C7.48639 2.59586 7.49874 2.52918 7.52389 2.46692C7.54904 2.40466 7.58647 2.34811 7.63395 2.30063C7.68143 2.25315 7.73798 2.21572 7.80024 2.19057C7.8625 2.16542 7.92919 2.15307 7.99632 2.15426C8.06346 2.15544 8.12967 2.17014 8.191 2.19746C8.25233 2.22479 8.30753 2.26419 8.35331 2.31332L10.3533 4.31332C10.4469 4.40707 10.4995 4.53415 10.4995 4.66665C10.4995 4.79915 10.4469 4.92624 10.3533 5.01999L8.35331 7.01999C8.30714 7.06673 8.25211 7.10378 8.19143 7.12896C8.13076 7.15415 8.06567 7.16696 7.99997 7.16665Z" fill="var(--fill-0, #F7633E)"/>
</g>
</svg>
