<svg preserveAspectRatio="none" width="100%" height="100%" overflow="visible" style="display: block;" viewBox="0 0 160 129.843" fill="none" xmlns="http://www.w3.org/2000/svg">
<g id="Frame" clip-path="url(#clip0_603_7733)">
<path id="Vector" fill-rule="evenodd" clip-rule="evenodd" d="M85.871 11.2295L141.362 21.4045C142.119 21.5433 142.625 22.2765 142.486 23.0338L128.781 97.7768C128.642 98.534 127.909 99.0399 127.152 98.9011L71.6611 88.7261C70.9037 88.5873 70.3979 87.8542 70.5367 87.0969L84.2417 12.354C84.3806 11.5966 85.1137 11.0907 85.871 11.2295Z" fill="var(--fill-0, #B7C2CC)"/>
<path id="Vector_2" d="M87.3975 2.27741L11.1109 24.3629L41.5951 129.66L117.882 107.574L87.3975 2.27741Z" fill="var(--fill-0, #B7C2CC)"/>
<path id="Vector_3" fill-rule="evenodd" clip-rule="evenodd" d="M91.4305 9.28979L146.921 19.4648C147.679 19.6036 148.185 20.3368 148.046 21.094L134.341 95.837C134.202 96.5942 133.469 97.1001 132.711 96.9613L77.2206 86.7863C76.4633 86.6475 75.9574 85.9144 76.0962 85.157L89.8013 10.4141C89.9401 9.65689 90.6732 9.15096 91.4305 9.28979Z" fill="var(--fill-0, #FF7553)"/>
<path id="Vector_4" fill-rule="evenodd" clip-rule="evenodd" d="M110.855 92.9537L77.2206 86.7864C76.4633 86.6475 75.9574 85.9144 76.0962 85.1571L88.7001 16.4194L110.855 92.9537Z" fill="var(--fill-0, #495561)"/>
<path id="Vector_5" d="M92.1608 10.8008L78.7631 83.8495L132.322 93.6727L145.72 20.6239L92.1608 10.8008Z" fill="var(--fill-0, #F8F8F8)"/>
<path id="Vector_6" fill-rule="evenodd" clip-rule="evenodd" d="M109.87 89.5513L78.7582 83.8465L90.1828 21.5406L109.87 89.5513Z" fill="var(--fill-0, #EDEDED)"/>
<path id="Vector_7" fill-rule="evenodd" clip-rule="evenodd" d="M94.5214 12.3544C95.2087 12.4805 95.6637 13.1398 95.5377 13.8271C95.4117 14.5144 94.7523 14.9695 94.0649 14.8434C93.3776 14.7174 92.9226 14.058 93.0486 13.3708C93.1747 12.6834 93.8341 12.2284 94.5214 12.3544Z" fill="var(--fill-0, #474B4F)"/>
<path id="Vector_8" fill-rule="evenodd" clip-rule="evenodd" d="M95.2516 8.37188C95.6126 8.43811 95.8538 8.78751 95.7876 9.1484L95.0209 13.329C94.9548 13.6898 94.6054 13.931 94.2444 13.8648C93.8835 13.7986 93.6424 13.4492 93.7086 13.0883L94.4752 8.90774C94.5413 8.54685 94.8907 8.30571 95.2516 8.37188Z" fill="var(--fill-0, #626E7A)"/>
<g id="Group">
<path id="Vector_9" fill-rule="evenodd" clip-rule="evenodd" d="M99.3631 13.2425C100.05 13.3686 100.505 14.0279 100.379 14.7153C100.253 15.4026 99.594 15.8576 98.9067 15.7315C98.2194 15.6055 97.7643 14.9461 97.8904 14.2588C98.0164 13.5715 98.6757 13.1165 99.3631 13.2425Z" fill="var(--fill-0, #474B4F)"/>
<path id="Vector_10" fill-rule="evenodd" clip-rule="evenodd" d="M100.093 9.25995C100.454 9.32612 100.696 9.67553 100.629 10.0364L99.8628 14.2171C99.7966 14.5779 99.4471 14.8191 99.0862 14.7529C98.7254 14.6867 98.4842 14.3373 98.5503 13.9764L99.3169 9.7958C99.3831 9.43492 99.7326 9.19378 100.093 9.25995Z" fill="var(--fill-0, #626E7A)"/>
</g>
<g id="Group_2">
<path id="Vector_11" fill-rule="evenodd" clip-rule="evenodd" d="M104.206 14.1303C104.894 14.2563 105.349 14.9157 105.223 15.603C105.096 16.2904 104.437 16.7454 103.75 16.6194C103.062 16.4933 102.607 15.834 102.733 15.1466C102.86 14.4592 103.519 14.0042 104.206 14.1303Z" fill="var(--fill-0, #474B4F)"/>
<path id="Vector_12" fill-rule="evenodd" clip-rule="evenodd" d="M104.936 10.1477C105.297 10.2139 105.539 10.5634 105.472 10.9242L104.706 15.1048C104.64 15.4657 104.29 15.7069 103.929 15.6407C103.568 15.5745 103.327 15.2251 103.393 14.8642L104.16 10.6836C104.226 10.3227 104.576 10.0816 104.936 10.1477Z" fill="var(--fill-0, #626E7A)"/>
</g>
<g id="Group_3">
<path id="Vector_13" fill-rule="evenodd" clip-rule="evenodd" d="M109.049 15.0183C109.736 15.1444 110.191 15.8037 110.065 16.4911C109.939 17.1784 109.28 17.6335 108.592 17.5074C107.905 17.3813 107.45 16.722 107.576 16.0347C107.702 15.3474 108.361 14.8923 109.049 15.0183Z" fill="var(--fill-0, #474B4F)"/>
<path id="Vector_14" fill-rule="evenodd" clip-rule="evenodd" d="M109.779 11.0357C110.14 11.1019 110.381 11.4513 110.315 11.8122L109.548 15.9929C109.482 16.3537 109.133 16.5949 108.772 16.5287C108.411 16.4625 108.17 16.1131 108.236 15.7522L109.002 11.5715C109.069 11.2107 109.418 10.9695 109.779 11.0357Z" fill="var(--fill-0, #626E7A)"/>
</g>
<g id="Group_4">
<path id="Vector_15" fill-rule="evenodd" clip-rule="evenodd" d="M113.891 15.9062C114.578 16.0323 115.033 16.6916 114.907 17.379C114.781 18.0663 114.122 18.5213 113.435 18.3952C112.747 18.2693 112.292 17.6099 112.418 16.9225C112.544 16.2352 113.204 15.7802 113.891 15.9062Z" fill="var(--fill-0, #474B4F)"/>
<path id="Vector_16" fill-rule="evenodd" clip-rule="evenodd" d="M114.621 11.9237C114.982 11.9898 115.223 12.3392 115.157 12.7001L114.391 16.8808C114.324 17.2417 113.975 17.4828 113.614 17.4166C113.253 17.3504 113.012 17.001 113.078 16.6401L113.845 12.4595C113.911 12.0986 114.26 11.8575 114.621 11.9237Z" fill="var(--fill-0, #626E7A)"/>
</g>
<g id="Group_5">
<path id="Vector_17" fill-rule="evenodd" clip-rule="evenodd" d="M118.733 16.7941C119.42 16.9201 119.876 17.5795 119.749 18.2668C119.623 18.9542 118.964 19.4092 118.277 19.2832C117.589 19.1571 117.134 18.4978 117.26 17.8104C117.386 17.1231 118.046 16.668 118.733 16.7941Z" fill="var(--fill-0, #474B4F)"/>
<path id="Vector_18" fill-rule="evenodd" clip-rule="evenodd" d="M119.463 12.8115C119.824 12.8776 120.066 13.2271 119.999 13.5879L119.233 17.7685C119.167 18.1294 118.817 18.3705 118.456 18.3044C118.095 18.2382 117.854 17.8888 117.92 17.5279L118.687 13.3473C118.753 12.9864 119.103 12.7453 119.463 12.8115Z" fill="var(--fill-0, #626E7A)"/>
</g>
<g id="Group_6">
<path id="Vector_19" fill-rule="evenodd" clip-rule="evenodd" d="M123.576 17.6819C124.263 17.808 124.718 18.4673 124.592 19.1546C124.466 19.8419 123.806 20.297 123.119 20.1709C122.432 20.0448 121.977 19.3855 122.103 18.6982C122.229 18.0109 122.888 17.5559 123.576 17.6819Z" fill="var(--fill-0, #474B4F)"/>
<path id="Vector_20" fill-rule="evenodd" clip-rule="evenodd" d="M124.306 13.6993C124.667 13.7656 124.908 14.115 124.842 14.4759L124.075 18.6565C124.009 19.0173 123.66 19.2585 123.299 19.1923C122.938 19.1261 122.697 18.7767 122.763 18.4158L123.529 14.2351C123.596 13.8743 123.945 13.6332 124.306 13.6993Z" fill="var(--fill-0, #626E7A)"/>
</g>
<g id="Group_7">
<path id="Vector_21" fill-rule="evenodd" clip-rule="evenodd" d="M128.418 18.5699C129.105 18.696 129.56 19.3553 129.434 20.0427C129.308 20.73 128.649 21.1851 127.962 21.059C127.274 20.933 126.819 20.2736 126.945 19.5863C127.071 18.8989 127.731 18.4439 128.418 18.5699Z" fill="var(--fill-0, #474B4F)"/>
<path id="Vector_22" fill-rule="evenodd" clip-rule="evenodd" d="M129.148 14.5873C129.509 14.6535 129.75 15.0029 129.684 15.3638L128.918 19.5444C128.852 19.9053 128.502 20.1464 128.141 20.0803H128.141C127.78 20.014 127.539 19.6646 127.605 19.3037L128.372 15.1231C128.438 14.7623 128.787 14.5211 129.148 14.5873Z" fill="var(--fill-0, #626E7A)"/>
</g>
<g id="Group_8">
<path id="Vector_23" fill-rule="evenodd" clip-rule="evenodd" d="M133.26 19.4579C133.947 19.584 134.402 20.2433 134.276 20.9307C134.15 21.618 133.49 22.073 132.803 21.947C132.116 21.8209 131.661 21.1616 131.787 20.4743C131.913 19.7869 132.572 19.3319 133.26 19.4579Z" fill="var(--fill-0, #474B4F)"/>
<path id="Vector_24" fill-rule="evenodd" clip-rule="evenodd" d="M133.991 15.4753C134.352 15.5415 134.593 15.8909 134.527 16.2518L133.76 20.4324C133.694 20.7933 133.344 21.0344 132.983 20.9683C132.623 20.9021 132.381 20.5527 132.448 20.1918L133.214 16.0111C133.28 15.6502 133.63 15.4091 133.991 15.4753Z" fill="var(--fill-0, #626E7A)"/>
</g>
<g id="Group_9">
<path id="Vector_25" fill-rule="evenodd" clip-rule="evenodd" d="M138.103 20.3456C138.79 20.4717 139.245 21.131 139.119 21.8183C138.993 22.5057 138.333 22.9607 137.646 22.8347C136.959 22.7087 136.504 22.0493 136.63 21.3619C136.756 20.6746 137.415 20.2195 138.103 20.3456Z" fill="var(--fill-0, #474B4F)"/>
<path id="Vector_26" fill-rule="evenodd" clip-rule="evenodd" d="M138.833 16.3632C139.194 16.4294 139.435 16.7788 139.369 17.1397L138.602 21.3203C138.536 21.6811 138.187 21.9223 137.826 21.8561C137.465 21.7899 137.224 21.4405 137.29 21.0797L138.056 16.899C138.123 16.5381 138.472 16.297 138.833 16.3632Z" fill="var(--fill-0, #626E7A)"/>
</g>
<g id="Group_10">
<path id="Vector_27" fill-rule="evenodd" clip-rule="evenodd" d="M142.945 21.2336C143.632 21.3597 144.087 22.0191 143.961 22.7064C143.835 23.3937 143.176 23.8488 142.489 23.7227C141.801 23.5967 141.346 22.9373 141.472 22.25C141.598 21.5627 142.258 21.1077 142.945 21.2336Z" fill="var(--fill-0, #474B4F)"/>
<path id="Vector_28" fill-rule="evenodd" clip-rule="evenodd" d="M143.675 17.2511C144.036 17.3173 144.277 17.6667 144.211 18.0276L143.445 22.2082C143.378 22.5691 143.029 22.8102 142.668 22.7441H142.668C142.307 22.6778 142.066 22.3284 142.132 21.9676L142.899 17.787C142.965 17.4261 143.314 17.1849 143.675 17.2511Z" fill="var(--fill-0, #626E7A)"/>
</g>
<path id="Vector_29" fill-rule="evenodd" clip-rule="evenodd" d="M96.3076 23.0197L130.929 29.3679C131.277 29.4318 131.51 29.7692 131.446 30.1177V30.1177C131.382 30.4662 131.045 30.699 130.696 30.6351L96.0753 24.2869C95.7268 24.223 95.494 23.8856 95.5578 23.5372L95.5579 23.5371C95.6218 23.1887 95.9592 22.9559 96.3076 23.0197Z" fill="var(--fill-0, #CBD3D6)"/>
<path id="Vector_30" fill-rule="evenodd" clip-rule="evenodd" d="M133.59 30.9056C133.446 30.6966 133.498 30.41 133.707 30.2657C133.916 30.1215 134.203 30.174 134.347 30.3831L135.026 31.3662L137.517 29.6467C137.726 29.5025 138.013 29.5551 138.157 29.7641C138.302 29.9732 138.249 30.2598 138.04 30.404L135.17 32.3847C134.961 32.529 134.674 32.4765 134.53 32.2674L133.59 30.9056Z" fill="var(--fill-0, #78CF7B)"/>
<g id="Group_11">
<path id="Vector_31" fill-rule="evenodd" clip-rule="evenodd" d="M94.48 32.9855L129.101 39.3337C129.449 39.3976 129.682 39.7349 129.618 40.0834V40.0835C129.554 40.432 129.217 40.6647 128.869 40.6008L94.2477 34.2526C93.8993 34.1888 93.6664 33.8515 93.7303 33.503V33.5029C93.7942 33.1544 94.1316 32.9216 94.48 32.9855Z" fill="var(--fill-0, #CBD3D6)"/>
<path id="Vector_32" fill-rule="evenodd" clip-rule="evenodd" d="M131.763 40.8714C131.618 40.6624 131.671 40.3758 131.88 40.2315C132.089 40.0873 132.376 40.1398 132.52 40.3489L133.198 41.332L135.69 39.6125C135.899 39.4683 136.186 39.5209 136.33 39.7299C136.474 39.9389 136.422 40.2256 136.212 40.3698L133.342 42.3505C133.133 42.4948 132.847 42.4422 132.702 42.2332L131.763 40.8714Z" fill="var(--fill-0, #78CF7B)"/>
</g>
<g id="Group_12">
<path id="Vector_33" fill-rule="evenodd" clip-rule="evenodd" d="M92.6521 42.9512L127.273 49.2994C127.622 49.3632 127.854 49.7006 127.79 50.0491L127.79 50.0491C127.727 50.3976 127.389 50.6304 127.041 50.5665L92.4198 44.2183C92.0713 44.1544 91.8385 43.817 91.9023 43.4686C91.9663 43.1201 92.3037 42.8872 92.6521 42.9512Z" fill="var(--fill-0, #CBD3D6)"/>
<path id="Vector_34" fill-rule="evenodd" clip-rule="evenodd" d="M129.935 50.8369C129.791 50.6279 129.844 50.3413 130.053 50.197C130.262 50.0527 130.548 50.1053 130.693 50.3144L131.371 51.2975L133.863 49.578C134.072 49.4338 134.358 49.4864 134.503 49.6954C134.647 49.9045 134.594 50.1911 134.385 50.3354L131.515 52.3161C131.306 52.4603 131.019 52.4078 130.875 52.1987L129.935 50.8369Z" fill="var(--fill-0, #78CF7B)"/>
</g>
<g id="Group_13">
<path id="Vector_35" fill-rule="evenodd" clip-rule="evenodd" d="M90.8249 52.9169L125.446 59.2651C125.794 59.329 126.027 59.6663 125.963 60.0148L125.963 60.0149C125.899 60.3633 125.562 60.5961 125.214 60.5322L90.5925 54.184C90.2441 54.12 90.0113 53.7828 90.0752 53.4344V53.4342C90.1391 53.0857 90.4765 52.853 90.8249 52.9169Z" fill="var(--fill-0, #CBD3D6)"/>
<path id="Vector_36" fill-rule="evenodd" clip-rule="evenodd" d="M128.108 60.8027C127.964 60.5937 128.017 60.307 128.226 60.1628C128.435 60.0185 128.721 60.0711 128.866 60.2801L129.544 61.2633L132.036 59.5438C132.245 59.3996 132.531 59.4521 132.676 59.6612C132.82 59.8702 132.767 60.1569 132.558 60.3011L129.688 62.2819C129.479 62.4262 129.192 62.3736 129.048 62.1646L128.108 60.8027Z" fill="var(--fill-0, #78CF7B)"/>
</g>
<g id="Group_14">
<path id="Vector_37" fill-rule="evenodd" clip-rule="evenodd" d="M88.9977 62.8823L123.619 69.2306C123.967 69.2945 124.2 69.6318 124.136 69.9803V69.9804C124.072 70.3288 123.735 70.5617 123.386 70.4977L88.7654 64.1495C88.417 64.0856 88.1842 63.7482 88.2481 63.3998C88.3119 63.0513 88.6493 62.8185 88.9977 62.8823Z" fill="var(--fill-0, #CBD3D6)"/>
<path id="Vector_38" fill-rule="evenodd" clip-rule="evenodd" d="M126.28 70.7683C126.136 70.5592 126.189 70.2726 126.398 70.1283C126.607 69.984 126.893 70.0366 127.038 70.2457L127.716 71.2288L130.208 69.5094C130.417 69.3651 130.703 69.4177 130.848 69.6268C130.992 69.8359 130.939 70.1224 130.73 70.2667L127.86 72.2474C127.651 72.3917 127.364 72.3391 127.22 72.1301L126.28 70.7683Z" fill="var(--fill-0, #78CF7B)"/>
</g>
<g id="Group_15">
<path id="Vector_39" fill-rule="evenodd" clip-rule="evenodd" d="M87.1706 72.848L121.792 79.1962C122.14 79.2602 122.373 79.5975 122.309 79.9459V79.946C122.245 80.2945 121.908 80.5273 121.559 80.4634L86.9382 74.1151C86.5898 74.0513 86.357 73.714 86.4209 73.3655V73.3654C86.4848 73.017 86.8221 72.7842 87.1706 72.848Z" fill="var(--fill-0, #CBD3D6)"/>
<path id="Vector_40" fill-rule="evenodd" clip-rule="evenodd" d="M124.453 80.734C124.309 80.525 124.362 80.2384 124.571 80.0941C124.78 79.9499 125.066 80.0024 125.211 80.2115L125.889 81.1946L128.381 79.4751C128.59 79.3309 128.876 79.3834 129.021 79.5925C129.165 79.8015 129.112 80.0882 128.903 80.2324L126.033 82.2132C125.824 82.3574 125.537 82.3049 125.393 82.0958L124.453 80.734Z" fill="var(--fill-0, #78CF7B)"/>
</g>
<path id="Vector_41" d="M81.9476 -0.206846L5.66099 21.8786L36.1452 127.176L112.432 105.09L81.9476 -0.206846Z" fill="var(--fill-0, #F8F8F8)"/>
<path id="Vector_42" d="M28.9229 42.7071L23.7664 44.2L27.166 55.9428L32.3225 54.4499L28.9229 42.7071Z" fill="var(--fill-0, #CBD3D6)"/>
<path id="Vector_43" d="M34.8809 36.7214L29.7243 38.2142L34.262 53.8882L39.4186 52.3954L34.8809 36.7214Z" fill="var(--fill-0, #FECB12)"/>
<path id="Vector_44" d="M40.973 31.1946L35.8164 32.6875L41.3593 51.8333L46.5159 50.3404L40.973 31.1946Z" fill="var(--fill-0, #78CF7B)"/>
<path id="Vector_45" d="M47.1821 26.0768L42.0255 27.5697L48.4552 49.7788L53.6118 48.286L47.1821 26.0768Z" fill="var(--fill-0, #73A6D9)"/>
<path id="Vector_46" fill-rule="evenodd" clip-rule="evenodd" d="M58.6913 26.5067C59.1564 26.3719 59.6428 26.64 59.7775 27.1051C59.9122 27.5704 59.6441 28.0568 59.179 28.1914C58.7138 28.326 58.2274 28.0581 58.0927 27.5928C57.9581 27.1277 58.226 26.6413 58.6913 26.5067Z" fill="var(--fill-0, #CBD3D6)"/>
<path id="Vector_47" fill-rule="evenodd" clip-rule="evenodd" d="M61.7524 26.0909L76.2517 21.8937C76.4763 21.8287 76.7133 21.9592 76.7783 22.1839C76.8433 22.4086 76.7128 22.6456 76.4881 22.7106L61.9889 26.9077C61.7642 26.9728 61.5273 26.8422 61.4622 26.6175C61.3972 26.3929 61.5278 26.1559 61.7524 26.0909Z" fill="var(--fill-0, #CBD3D6)"/>
<path id="Vector_48" fill-rule="evenodd" clip-rule="evenodd" d="M60.0214 31.1015C60.4867 30.9668 60.973 31.2348 61.1077 31.7C61.2424 32.1652 60.9744 32.6516 60.5092 32.7863C60.0439 32.9209 59.5576 32.6529 59.4229 32.1877C59.2883 31.7225 59.5562 31.2362 60.0214 31.1015Z" fill="var(--fill-0, #FECB12)"/>
<path id="Vector_49" fill-rule="evenodd" clip-rule="evenodd" d="M61.3516 35.6964C61.8168 35.5616 62.3031 35.8297 62.4379 36.2949C62.5725 36.7601 62.3045 37.2464 61.8393 37.3812C61.3741 37.5158 60.8878 37.2478 60.7531 36.7826C60.6184 36.3174 60.8864 35.8311 61.3516 35.6964Z" fill="var(--fill-0, #78CF7B)"/>
<path id="Vector_50" fill-rule="evenodd" clip-rule="evenodd" d="M62.6817 40.2912C63.147 40.1566 63.6333 40.4246 63.768 40.8898C63.9027 41.355 63.6347 41.8413 63.1694 41.976C62.7043 42.1107 62.2179 41.8427 62.0832 41.3775C61.9486 40.9122 62.2166 40.4259 62.6817 40.2912Z" fill="var(--fill-0, #73A6D9)"/>
<path id="Vector_51" fill-rule="evenodd" clip-rule="evenodd" d="M63.0826 30.6856L77.5818 26.4885C77.8065 26.4234 78.0434 26.554 78.1084 26.7787L78.1085 26.7787C78.1735 27.0034 78.0429 27.2403 77.8183 27.3053L63.319 31.5025C63.0944 31.5675 62.8574 31.437 62.7924 31.2123L62.7924 31.2122C62.7274 30.9876 62.8579 30.7507 63.0826 30.6856Z" fill="var(--fill-0, #FECB12)"/>
<path id="Vector_52" fill-rule="evenodd" clip-rule="evenodd" d="M64.4127 35.2805L78.9119 31.0833C79.1366 31.0183 79.3736 31.1488 79.4386 31.3735C79.5036 31.5982 79.3731 31.8352 79.1484 31.9002L64.6492 36.0974C64.4246 36.1625 64.1876 36.0319 64.1226 35.8072C64.0575 35.5825 64.188 35.3456 64.4127 35.2805Z" fill="var(--fill-0, #78CF7B)"/>
<path id="Vector_53" fill-rule="evenodd" clip-rule="evenodd" d="M65.7429 39.8752L80.2422 35.6781C80.4669 35.613 80.7038 35.7436 80.7688 35.9682C80.8339 36.1929 80.7033 36.4299 80.4787 36.495L65.9794 40.6922C65.7547 40.7572 65.5178 40.6266 65.4528 40.402C65.3877 40.1772 65.5182 39.9403 65.7429 39.8752Z" fill="var(--fill-0, #73A6D9)"/>
<g id="Group_16">
<path id="Vector_54" fill-rule="evenodd" clip-rule="evenodd" d="M31.7168 69.008L85.0856 53.5589C85.4788 53.4451 85.8935 53.6736 86.0073 54.0668C86.1211 54.4599 85.8926 54.8745 85.4994 54.9884L32.1305 70.4375C31.7373 70.5513 31.3227 70.3229 31.2089 69.9297C31.0951 69.5366 31.3236 69.1219 31.7168 69.008Z" fill="var(--fill-0, #CBD3D6)"/>
<path id="Vector_55" fill-rule="evenodd" clip-rule="evenodd" d="M33.2547 74.3177L86.6236 58.8686C87.0167 58.7548 87.4313 58.9832 87.5452 59.3764C87.659 59.7695 87.4305 60.1842 87.0373 60.298L33.6685 75.7472C33.2753 75.861 32.8606 75.6325 32.7468 75.2393C32.633 74.8462 32.8615 74.4315 33.2547 74.3177Z" fill="var(--fill-0, #CBD3D6)"/>
</g>
<path id="Vector_56" fill-rule="evenodd" clip-rule="evenodd" d="M36.2788 87.441L43.9368 85.2242C44.2188 85.1426 44.5136 85.305 44.5952 85.587L46.8121 93.245C46.8936 93.527 46.7313 93.8218 46.4493 93.9034L38.7912 96.1202C38.5093 96.2018 38.2145 96.0394 38.1329 95.7575L35.9161 88.0994C35.8344 87.8174 35.9969 87.5227 36.2788 87.441ZM43.7219 86.3931L37.085 88.3144L39.0062 94.9513L45.6431 93.03L43.7219 86.3931Z" fill="var(--fill-0, #CBD3D6)"/>
<g id="Group_17">
<path id="Vector_57" fill-rule="evenodd" clip-rule="evenodd" d="M51.5134 83.8058L90.5695 72.4999C90.9625 72.3861 91.3772 72.6146 91.4911 73.0078C91.6049 73.4009 91.3764 73.8155 90.9832 73.9294L51.9272 85.2353C51.5341 85.3491 51.1194 85.1206 51.0056 84.7274C50.8918 84.3343 51.1203 83.9197 51.5134 83.8058Z" fill="var(--fill-0, #CBD3D6)"/>
<path id="Vector_58" fill-rule="evenodd" clip-rule="evenodd" d="M53.0505 89.1154L92.1066 77.8096C92.4997 77.6958 92.9145 77.9242 93.0282 78.3174C93.142 78.7105 92.9135 79.1252 92.5204 79.239L53.4643 90.5449C53.0712 90.6587 52.6566 90.4302 52.5427 90.0371C52.4289 89.6439 52.6573 89.2292 53.0505 89.1154Z" fill="var(--fill-0, #CBD3D6)"/>
</g>
<path id="Vector_59" fill-rule="evenodd" clip-rule="evenodd" d="M39.1109 91.7915C38.854 91.6499 38.7604 91.3265 38.9019 91.0695C39.0435 90.8126 39.3669 90.719 39.6238 90.8606L40.8324 91.5265L42.5201 88.4637C42.6616 88.2067 42.985 88.1131 43.2419 88.2547C43.4989 88.3963 43.5925 88.7196 43.4509 88.9766L41.5068 92.5049C41.3652 92.7619 41.0419 92.8555 40.7849 92.7139L39.1109 91.7915Z" fill="var(--fill-0, #78CF7B)"/>
<path id="Vector_60" fill-rule="evenodd" clip-rule="evenodd" d="M40.1834 100.929L47.8414 98.7126C48.1234 98.6311 48.4182 98.7934 48.4998 99.0754L50.7167 106.733C50.7983 107.015 50.6359 107.31 50.3539 107.392L42.6958 109.609C42.4139 109.69 42.1191 109.528 42.0375 109.246L39.8207 101.588C39.739 101.306 39.9014 101.011 40.1834 100.929ZM47.6265 99.8816L40.9896 101.803L42.9108 108.44L49.5477 106.518L47.6265 99.8816Z" fill="var(--fill-0, #CBD3D6)"/>
<g id="Group_18">
<path id="Vector_61" fill-rule="evenodd" clip-rule="evenodd" d="M55.4174 97.2942L94.4734 85.9884C94.8665 85.8746 95.2812 86.103 95.395 86.4962C95.5088 86.8893 95.2803 87.304 94.8872 87.4178L55.8311 98.7237C55.438 98.8375 55.0234 98.609 54.9095 98.2159C54.7957 97.8227 55.0242 97.408 55.4174 97.2942Z" fill="var(--fill-0, #CBD3D6)"/>
<path id="Vector_62" fill-rule="evenodd" clip-rule="evenodd" d="M56.9545 102.604L96.0106 91.298C96.4037 91.1842 96.8183 91.4127 96.9322 91.8059C97.046 92.199 96.8175 92.6136 96.4244 92.7275L57.3683 104.033C56.9752 104.147 56.5605 103.919 56.4467 103.526C56.3329 103.132 56.5614 102.718 56.9545 102.604Z" fill="var(--fill-0, #CBD3D6)"/>
</g>
<path id="Vector_63" fill-rule="evenodd" clip-rule="evenodd" d="M43.0147 105.28C42.7578 105.138 42.6642 104.815 42.8057 104.558C42.9473 104.301 43.2707 104.207 43.5276 104.349L44.7361 105.015L46.4238 101.952C46.5655 101.695 46.8888 101.602 47.1457 101.743C47.4028 101.885 47.4964 102.208 47.3547 102.465L45.4106 105.993C45.269 106.25 44.9457 106.344 44.6887 106.202L43.0147 105.28Z" fill="var(--fill-0, #78CF7B)"/>
<path id="Vector_64" d="M83.8409 84.2973C91.2341 76.9041 91.2341 64.9174 83.8409 57.5243C76.4477 50.1311 64.461 50.1311 57.0678 57.5243C49.6746 64.9175 49.6746 76.9042 57.0678 84.2974C64.461 91.6905 76.4477 91.6905 83.8409 84.2973Z" fill="var(--fill-0, #FF7553)"/>
<path id="Vector_65" d="M80.9446 81.4011C86.7382 75.6075 86.7382 66.2143 80.9446 60.4207C75.151 54.6271 65.7578 54.6272 59.9642 60.4207C54.1706 66.2143 54.1706 75.6076 59.9642 81.4011C65.7577 87.1947 75.151 87.1947 80.9446 81.4011Z" fill="var(--fill-0, #FFF5F3)"/>
<path id="Vector_66" d="M83.8967 79.9362L82.4566 81.7787L89.3244 87.1464L90.7645 85.3038L83.8967 79.9362Z" fill="var(--fill-0, #FF7553)"/>
<path id="Vector_67" fill-rule="evenodd" clip-rule="evenodd" d="M102.944 97.2492L103.964 95.9445C104.469 95.2983 104.354 94.3565 103.708 93.8516L90.6023 83.609L87.6448 87.3931L100.62 97.5341C101.338 98.095 102.384 97.9667 102.944 97.2492Z" fill="var(--fill-0, #FF7553)"/>
<g id="Group_19">
<path id="Vector_68" fill-rule="evenodd" clip-rule="evenodd" d="M59.4297 60.9861L74.481 56.6291C75.2738 56.8521 76.0536 57.1434 76.812 57.5035L57.9232 62.9714C58.1823 62.5634 58.4632 62.1641 58.767 61.7753C58.9803 61.5025 59.2018 61.24 59.4297 60.9861Z" fill="var(--fill-0, #FFCABF)"/>
<path id="Vector_69" fill-rule="evenodd" clip-rule="evenodd" d="M55.9586 67.7455L81.0182 60.4914C81.4078 60.8852 81.7707 61.2977 82.1082 61.725L55.6997 69.3697C55.756 68.8257 55.8415 68.2833 55.9586 67.7455Z" fill="var(--fill-0, #FFCABF)"/>
</g>
<g id="Group_20">
<path id="Vector_70" fill-rule="evenodd" clip-rule="evenodd" d="M59.9309 81.3688L84.9404 74.1292C84.8144 74.698 84.6548 75.2618 84.4601 75.8174L61.2427 82.5383C60.7775 82.1698 60.3399 81.7794 59.9309 81.3688Z" fill="var(--fill-0, #FFCABF)"/>
<path id="Vector_71" fill-rule="evenodd" clip-rule="evenodd" d="M66.5155 85.2172L81.4224 80.902C80.6043 81.802 79.696 82.5795 78.7226 83.2328L70.0565 85.7414C68.8674 85.7105 67.678 85.5367 66.5155 85.2172Z" fill="var(--fill-0, #FFCABF)"/>
</g>
<path id="Vector_72" fill-rule="evenodd" clip-rule="evenodd" d="M60.6789 63.3672C60.6927 63.3464 60.7076 63.3255 60.7237 63.305C60.7319 63.2933 60.743 63.2802 60.7563 63.2655C61.2359 62.6567 61.7656 62.1022 62.3363 61.6034C62.9218 61.0916 63.5427 60.6448 64.1894 60.2644C64.3918 60.1456 64.6522 60.2134 64.771 60.4159C64.7893 60.4471 64.8031 60.4796 64.8127 60.5127L65.118 61.5667C65.1748 61.763 65.0838 61.967 64.9106 62.0598C64.4074 62.3748 63.9271 62.7357 63.4763 63.1414C63.0282 63.5448 62.6098 63.9914 62.2277 64.48L62.2285 64.4806L62.2099 64.5029C61.3482 65.6112 60.7447 66.8391 60.391 68.1138C60.0215 69.4456 59.9245 70.8288 60.0903 72.1797C60.1363 72.555 60.2029 72.9293 60.2899 73.3003C60.3762 73.6684 60.4829 74.033 60.6095 74.3923C60.6868 74.6134 60.5703 74.8554 60.3491 74.9328L60.327 74.9398L60.3273 74.9408L59.3078 75.2359C59.0823 75.3012 58.8464 75.1714 58.7811 74.9457L58.7786 74.9365C58.6397 74.5324 58.522 74.1221 58.426 73.7077C58.3273 73.2823 58.2513 72.8511 58.1979 72.4162C58.0027 70.825 58.1151 69.197 58.5467 67.6294C58.9603 66.1269 59.6677 64.6776 60.6789 63.3672Z" fill="var(--fill-0, white)"/>
<path id="Vector_73" fill-rule="evenodd" clip-rule="evenodd" d="M66.9015 58.5255C67.6385 58.3122 68.4089 58.7367 68.6222 59.4736C68.8356 60.2106 68.411 60.981 67.674 61.1944C66.937 61.4076 66.1667 60.9832 65.9534 60.2462C65.7401 59.5092 66.1646 58.7389 66.9015 58.5255Z" fill="var(--fill-0, white)"/>
</g>
<defs>
<clipPath id="clip0_603_7733">
<rect width="160" height="129.843" fill="white"/>
</clipPath>
</defs>
</svg>
