<svg preserveAspectRatio="none" width="100%" height="100%" overflow="visible" style="display: block;" viewBox="0 0 16.9583 19.7084" fill="none" xmlns="http://www.w3.org/2000/svg">
<g id="Group">
<path id="Vector" d="M0.687501 8.02083C0.687501 4.56408 0.687501 2.83525 1.82875 1.76183C2.97 0.688417 4.80608 0.6875 8.47917 0.6875H9.18775C12.1761 0.6875 13.6721 0.6875 14.7098 1.419C15.0067 1.628 15.2707 1.87733 15.4935 2.15692C16.2708 3.13408 16.2708 4.54025 16.2708 7.35442V9.68733C16.2708 12.4034 16.2708 13.7619 15.8409 14.8463C15.1497 16.5907 13.6886 17.9657 11.8351 18.6166C10.6828 19.0208 9.24092 19.0208 6.35342 19.0208C4.70525 19.0208 3.88025 19.0208 3.22208 18.7898C2.16333 18.4177 1.32825 17.6321 0.933167 16.6357C0.687501 16.016 0.687501 15.2396 0.687501 13.6877V8.02083Z" stroke="var(--stroke-0, #A1A8B2)" stroke-width="1.375" stroke-linecap="round" stroke-linejoin="round"/>
<path id="Vector_2" d="M16.2708 9.85417C16.2708 10.6645 15.9489 11.4416 15.376 12.0146C14.803 12.5875 14.0259 12.9094 13.2156 12.9094C12.6051 12.9094 11.8855 12.8031 11.2924 12.9617C11.0334 13.0313 10.7972 13.1678 10.6075 13.3575C10.4178 13.5472 10.2813 13.7834 10.2117 14.0424C10.0531 14.6355 10.1594 15.3551 10.1594 15.9656C10.1594 16.3668 10.0804 16.7641 9.92685 17.1348C9.77331 17.5055 9.54826 17.8423 9.26456 18.126C8.98085 18.4097 8.64404 18.6347 8.27336 18.7883C7.90268 18.9418 7.50539 19.0208 7.10417 19.0208M4.8125 5.27083H11.2292M4.8125 8.9375H7.5625" stroke="var(--stroke-0, #A1A8B2)" stroke-width="1.375" stroke-linecap="round" stroke-linejoin="round"/>
</g>
</svg>
