<svg preserveAspectRatio="none" width="100%" height="100%" overflow="visible" style="display: block;" viewBox="0 0 14.6674 14.6666" fill="none" xmlns="http://www.w3.org/2000/svg">
<g id="Group">
<path id="Vector" d="M5.33333 12.6667H3.33333C2.62609 12.6667 1.94781 12.3857 1.44772 11.8856C0.947618 11.3855 0.666667 10.7072 0.666667 10V4C0.666667 3.29276 0.947618 2.61448 1.44772 2.11438C1.94781 1.61428 2.62609 1.33333 3.33333 1.33333H10.6667C11.3739 1.33333 12.0522 1.61428 12.5523 2.11438C13.0524 2.61448 13.3333 3.29276 13.3333 4V6M4.66667 0.666667V2M9.33333 0.666667V2M0.666667 4.66667H13.3333M11.6667 9.762L10.6667 10.762" stroke="var(--stroke-0, #FF7553)" stroke-width="1.33333" stroke-linecap="round" stroke-linejoin="round"/>
<path id="Vector_2" d="M10.6674 13.9999C12.5083 13.9999 14.0007 12.5075 14.0007 10.6666C14.0007 8.82563 12.5083 7.33324 10.6674 7.33324C8.82643 7.33324 7.33405 8.82563 7.33405 10.6666C7.33405 12.5075 8.82643 13.9999 10.6674 13.9999Z" stroke="var(--stroke-0, #FF7553)" stroke-width="1.33333" stroke-linecap="round" stroke-linejoin="round"/>
</g>
</svg>
