<svg preserveAspectRatio="none" width="100%" height="100%" overflow="visible" style="display: block;" viewBox="0 0 19.7083 17.875" fill="none" xmlns="http://www.w3.org/2000/svg">
<g id="Group">
<path id="Vector" d="M13.0625 8.9375C13.0625 9.35882 12.9795 9.77602 12.8182 10.1653C12.657 10.5545 12.4207 10.9082 12.1228 11.2061C11.8248 11.5041 11.4711 11.7404 11.0819 11.9016C10.6926 12.0628 10.2754 12.1458 9.85412 12.1458C9.43279 12.1458 9.01559 12.0628 8.62634 11.9016C8.23709 11.7404 7.8834 11.5041 7.58548 11.2061C7.28756 10.9082 7.05124 10.5545 6.89 10.1653C6.72877 9.77602 6.64578 9.35882 6.64578 8.9375C6.64578 8.0866 6.9838 7.27054 7.58548 6.66886C8.18716 6.06719 9.00321 5.72917 9.85412 5.72917C10.705 5.72917 11.5211 6.06719 12.1228 6.66886C12.7244 7.27054 13.0625 8.0866 13.0625 8.9375Z" stroke="var(--stroke-0, #A1A8B2)" stroke-width="1.375" stroke-linecap="round" stroke-linejoin="round"/>
<path id="Vector_2" d="M17.9117 6.32683C18.6523 7.601 19.0208 8.23808 19.0208 8.9375C19.0208 9.63692 18.6514 10.274 17.9117 11.5482L16.1489 14.5878C15.4128 15.8565 15.0443 16.4908 14.4393 16.8392C13.8343 17.1875 13.0992 17.1875 11.6297 17.1875H8.07858C6.60917 17.1875 5.874 17.1875 5.269 16.8392C4.664 16.4908 4.2955 15.8565 3.55942 14.5878L1.79667 11.5482C1.05692 10.274 0.6875 9.63692 0.6875 8.9375C0.6875 8.23808 1.05692 7.601 1.79667 6.32683L3.55942 3.28717C4.2955 2.0185 4.664 1.38417 5.269 1.03583C5.874 0.687501 6.60917 0.687501 8.07858 0.687501H11.6297C13.0992 0.687501 13.8343 0.687501 14.4393 1.03583C15.0443 1.38417 15.4128 2.0185 16.1489 3.28717L17.9117 6.32683Z" stroke="var(--stroke-0, #A1A8B2)" stroke-width="1.375" stroke-linecap="round" stroke-linejoin="round"/>
</g>
</svg>
