<svg preserveAspectRatio="none" width="100%" height="100%" overflow="visible" style="display: block;" viewBox="0 0 20 20" fill="none" xmlns="http://www.w3.org/2000/svg">
<g id="Frame 1984078545">
<path id="Vector 1" d="M4.68774 6.49538C4.68774 6.17321 4.42658 5.91204 4.10441 5.91204C3.78224 5.91204 3.52108 6.17321 3.52108 6.49538H4.10441H4.68774ZM16.3081 11.0727C16.5359 10.8449 16.5359 10.4755 16.3081 10.2477L12.5957 6.53542C12.3679 6.30762 11.9986 6.30762 11.7708 6.53542C11.543 6.76323 11.543 7.13257 11.7708 7.36038L15.0706 10.6602L11.7708 13.96C11.543 14.1878 11.543 14.5572 11.7708 14.785C11.9986 15.0128 12.3679 15.0128 12.5957 14.785L16.3081 11.0727ZM4.10441 6.49538H3.52108V8.99355H4.10441H4.68774V6.49538H4.10441ZM5.77108 10.6602V11.2435H15.8956V10.6602V10.0769H5.77108V10.6602ZM4.10441 8.99355H3.52108C3.52108 10.2362 4.52844 11.2435 5.77108 11.2435V10.6602V10.0769C5.17277 10.0769 4.68774 9.59185 4.68774 8.99355H4.10441Z" fill="var(--stroke-0, #3B67B0)"/>
</g>
</svg>
