<svg preserveAspectRatio="none" width="100%" height="100%" overflow="visible" style="display: block;" viewBox="0 0 14.6598 12.8538" fill="none" xmlns="http://www.w3.org/2000/svg">
<path id="Vector" fill-rule="evenodd" clip-rule="evenodd" d="M8.4218 0.639604L14.5543 11.6146C14.625 11.7414 14.6614 11.8845 14.6597 12.0297C14.6581 12.1749 14.6186 12.3171 14.5451 12.4423C14.4716 12.5676 14.3666 12.6714 14.2406 12.7436C14.1147 12.8157 13.972 12.8537 13.8268 12.8538H0.833463C0.688147 12.8538 0.54535 12.8158 0.419244 12.7436C0.293138 12.6714 0.188106 12.5675 0.114571 12.4421C0.0410361 12.3168 0.00155488 12.1744 4.49951e-05 12.0291C-0.00146489 11.8838 0.0350491 11.7406 0.105964 11.6138L6.2393 0.639604C6.34783 0.445637 6.50613 0.284118 6.69787 0.171692C6.88961 0.0592665 7.10786 0 7.33013 0C7.5524 0 7.77065 0.0592665 7.96239 0.171692C8.15413 0.284118 8.31242 0.445637 8.42096 0.639604H8.4218ZM7.33013 3.27044C7.20031 3.27043 7.072 3.29822 6.95382 3.35194C6.83564 3.40566 6.73033 3.48407 6.64499 3.58189C6.55964 3.67971 6.49623 3.79468 6.45903 3.91905C6.42182 4.04342 6.41169 4.17432 6.4293 4.30294L6.8568 7.44127C6.87205 7.556 6.92846 7.66128 7.01553 7.73754C7.10259 7.81379 7.21439 7.85583 7.33013 7.85583C7.44587 7.85583 7.55767 7.81379 7.64473 7.73754C7.7318 7.66128 7.78821 7.556 7.80346 7.44127L8.23096 4.30294C8.24857 4.17432 8.23844 4.04342 8.20123 3.91905C8.16403 3.79468 8.10062 3.67971 8.01527 3.58189C7.92993 3.48407 7.82462 3.40566 7.70644 3.35194C7.58826 3.29822 7.45995 3.27043 7.33013 3.27044V3.27044ZM7.33013 10.4621C7.57877 10.4621 7.81723 10.3633 7.99304 10.1875C8.16886 10.0117 8.26763 9.77324 8.26763 9.5246C8.26763 9.27596 8.16886 9.03751 7.99304 8.86169C7.81723 8.68588 7.57877 8.5871 7.33013 8.5871C7.08149 8.5871 6.84303 8.68588 6.66722 8.86169C6.4914 9.03751 6.39263 9.27596 6.39263 9.5246C6.39263 9.77324 6.4914 10.0117 6.66722 10.1875C6.84303 10.3633 7.08149 10.4621 7.33013 10.4621V10.4621Z" fill="var(--fill-0, #BF2600)"/>
</svg>
