<svg width="40" height="40" viewBox="0 0 40 40" fill="none" xmlns="http://www.w3.org/2000/svg">
<rect width="40" height="40" rx="8" fill="#D1FAE5"/>
<g clip-path="url(#clip0_283_22067)">
<path d="M26.875 13.009C28.804 14.9226 29.7685 17.2297 29.7685 19.9303C29.7685 22.631 28.804 24.9381 26.875 26.8516C24.946 28.7652 22.6235 29.722 19.9074 29.722C18.2407 29.722 16.6821 29.3208 15.2315 28.5183L10 29.8609L11.3889 24.8146C10.5247 23.3023 10.0926 21.6664 10.0926 19.9072C10.0926 17.222 11.0494 14.9226 12.963 13.009C14.8765 11.0955 17.1914 10.1387 19.9074 10.1387C22.6235 10.1387 24.946 11.0955 26.875 13.009ZM19.9074 28.0553C22.1605 28.0553 24.0895 27.2606 25.6944 25.6711C27.2994 24.0816 28.1019 22.1603 28.1019 19.9072C28.1019 17.6541 27.2994 15.7328 25.6944 14.1433C24.0895 12.5538 22.1605 11.759 19.9074 11.759C17.6543 11.759 15.733 12.5538 14.1435 14.1433C12.554 15.7328 11.7593 17.6541 11.7593 19.9072C11.7593 21.4813 12.1759 22.9319 13.0093 24.259L13.1944 24.5368L12.3611 27.5461L15.463 26.759L15.7407 26.8979C17.037 27.6695 18.4259 28.0553 19.9074 28.0553ZM24.3981 21.9442C24.6759 22.0985 24.8302 22.2066 24.8611 22.2683C24.9846 22.4535 24.9383 22.8393 24.7222 23.4257C24.6296 23.6726 24.3981 23.9118 24.0278 24.1433C23.6574 24.3748 23.3333 24.5214 23.0556 24.5831C22.5 24.6448 21.9907 24.614 21.5278 24.4905C21.0031 24.3053 20.5401 24.1356 20.1389 23.9813C19.892 23.8578 19.6528 23.7266 19.4213 23.5877C19.1898 23.4489 18.966 23.31 18.75 23.1711C18.534 23.0322 18.3333 22.8856 18.1481 22.7313C17.963 22.5769 17.7855 22.4226 17.6157 22.2683C17.446 22.114 17.284 21.9519 17.1296 21.7822C16.9753 21.6124 16.8441 21.4658 16.7361 21.3424C16.6281 21.2189 16.5201 21.0877 16.412 20.9489C16.304 20.81 16.2191 20.7019 16.1574 20.6248C16.0957 20.5476 16.0417 20.4705 15.9954 20.3933L15.9259 20.2776C15.2469 19.3825 14.9074 18.5337 14.9074 17.7313C14.9074 16.9905 15.2006 16.3115 15.787 15.6942C15.9722 15.4782 16.1883 15.3702 16.4352 15.3702C16.6204 15.3702 16.7747 15.3856 16.8981 15.4164C17.1451 15.4164 17.3302 15.5553 17.4537 15.8331C17.5154 15.9257 17.608 16.1263 17.7315 16.435L18.0556 17.2452L18.1944 17.6387C18.287 17.793 18.3025 17.9319 18.2407 18.0553C18.1481 18.2714 18.071 18.4103 18.0093 18.472L17.8704 18.6109L17.7315 18.7729L17.6389 18.8887C17.4537 19.0739 17.4074 19.2436 17.5 19.3979C17.9012 20.0769 18.3642 20.6479 18.8889 21.1109C19.2901 21.4504 19.9537 21.8516 20.8796 22.3146C21.0957 22.4072 21.2654 22.3918 21.3889 22.2683C21.7593 21.8053 22.0216 21.4813 22.1759 21.2961C22.2994 21.1109 22.4846 21.0646 22.7315 21.1572C22.9167 21.2498 23.4722 21.5121 24.3981 21.9442Z" fill="#059669"/>
</g>
<defs>
<clipPath id="clip0_283_22067">
<rect width="20" height="20" fill="white" transform="translate(10 10)"/>
</clipPath>
</defs>
</svg>
